<?xml version="1.0" standalone="no"?>
<!DOCTYPE svg PUBLIC "-//W3C//DTD SVG 20010904//EN"
 "http://www.w3.org/TR/2001/REC-SVG-20010904/DTD/svg10.dtd">
<svg version="1.0" xmlns="http://www.w3.org/2000/svg"
 width="1156.000000pt" height="328.000000pt" viewBox="0 0 1156.000000 328.000000"
 preserveAspectRatio="xMidYMid meet">

<g transform="translate(0.000000,328.000000) scale(0.100000,-0.100000)"
fill="#000000" stroke="none">
<path d="M130 3267 c-46 -15 -106 -77 -119 -124 -8 -26 -11 -504 -11 -1509 l0
-1472 28 -53 c22 -43 38 -59 81 -81 l53 -28 1298 0 c1144 0 1299 2 1304 15 3
8 17 15 31 15 16 0 25 -6 25 -15 0 -18 16 -20 23 -2 4 9 6 9 6 0 1 -16 31 -17
31 -2 0 5 -4 7 -10 4 -6 -3 -10 -1 -10 4 0 6 4 11 10 11 5 0 7 7 4 15 -8 19 0
19 20 -1 15 -14 16 -13 16 13 1 24 2 25 11 10 14 -24 29 -21 29 6 0 18 -2 19
-10 7 -5 -8 -10 -10 -10 -5 0 13 18 41 22 35 2 -3 9 -16 16 -30 8 -17 11 -18
8 -5 -11 46 -16 79 -10 65 4 -8 15 -23 25 -33 15 -14 19 -15 19 -3 0 8 -8 16
-17 19 -14 3 -12 6 10 15 29 12 33 23 17 53 -7 13 -7 19 0 19 5 0 10 -6 10
-13 0 -8 10 -22 22 -33 19 -15 20 -16 9 -1 -15 19 -2 24 17 5 9 -9 12 -8 12 6
0 9 5 14 10 11 13 -8 13 1 0 25 -8 16 -8 18 5 14 10 -4 15 0 15 11 0 12 5 15
19 10 11 -3 23 -1 26 6 6 8 10 7 17 -2 5 -9 6 -4 2 14 -5 23 -4 26 11 21 14
-6 16 -3 10 14 -4 13 -2 22 4 22 6 0 11 -8 12 -17 0 -12 2 -13 6 -5 4 10 8 10
19 2 15 -13 34 -5 33 13 0 9 -2 9 -6 0 -6 -17 -23 -16 -23 1 0 8 20 24 46 36
44 22 46 22 60 4 14 -18 14 -18 7 0 -5 16 -3 18 11 13 14 -6 16 -3 11 13 -4
12 -2 20 5 20 7 0 20 10 31 22 18 22 18 22 19 3 1 -11 4 -14 7 -7 2 6 11 12
19 12 8 0 11 6 8 15 -4 8 -10 12 -15 9 -5 -3 -9 -1 -9 4 0 6 -9 8 -20 5 -16
-4 -20 -1 -19 18 1 17 3 19 6 7 5 -19 23 -25 23 -8 0 11 15 1 50 -34 15 -15
20 -16 20 -5 0 12 2 12 10 -1 15 -24 19 -7 5 25 -10 22 -14 25 -14 11 -1 -19
-2 -18 -22 3 -16 17 -18 26 -10 34 8 8 11 8 11 -2 0 -10 3 -11 13 -3 13 11 36
-7 50 -39 4 -9 6 -7 6 6 -2 40 1 45 30 45 16 0 31 6 35 15 3 9 0 15 -9 15 -8
0 -15 4 -15 9 0 5 -3 18 -6 28 -5 17 -5 17 6 1 11 -17 36 -26 26 -10 -6 10 40
62 54 62 6 0 10 -8 10 -17 0 -14 2 -15 9 -4 7 11 9 11 14 0 3 -8 3 0 0 17 -3
18 0 35 6 38 6 4 9 12 6 17 -3 5 1 6 10 2 10 -3 21 0 25 7 6 9 10 7 15 -9 3
-11 13 -21 21 -21 19 0 18 19 -1 26 -19 8 -19 24 0 24 8 0 15 -4 15 -8 0 -5 7
-9 15 -9 20 0 19 6 -7 28 -13 10 -17 18 -10 19 6 0 12 -6 12 -12 1 -7 6 -3 13
10 7 12 17 19 21 15 5 -4 7 2 4 14 -6 24 11 36 32 23 8 -5 10 -17 7 -32 -5
-19 -2 -24 13 -24 23 0 25 7 8 24 -9 9 -9 12 0 12 7 0 12 6 11 13 -4 30 2 47
16 47 9 0 18 -7 21 -15 10 -24 21 -18 27 15 6 28 23 37 60 31 7 -1 11 15 7 38
-1 9 4 12 14 8 21 -8 21 19 1 40 -9 8 -13 18 -9 22 4 3 9 0 11 -6 3 -7 13 -13
23 -13 10 0 21 -4 25 -10 3 -5 13 -6 21 -3 9 3 20 0 26 -8 8 -12 9 -11 5 2 -3
8 1 26 9 40 7 13 14 20 14 14 1 -5 5 -1 10 10 8 18 9 18 9 2 1 -10 6 -15 11
-12 7 4 6 13 -1 27 -9 18 -8 19 10 13 15 -5 21 -2 21 9 0 17 20 18 32 1 4 -6
8 -2 8 8 0 10 8 17 19 17 24 0 39 39 20 51 -10 7 -5 8 13 5 21 -4 26 -1 21 11
-4 10 -2 14 4 10 6 -4 14 -1 16 5 4 9 6 9 6 1 1 -6 9 -9 19 -6 14 3 18 11 15
31 -3 19 -2 23 5 13 8 -11 10 -11 15 0 4 10 6 10 6 2 1 -20 28 -15 34 6 3 14
11 18 26 14 26 -7 28 13 2 22 -31 10 -9 64 26 65 7 0 10 -7 7 -15 -3 -8 -11
-13 -17 -12 -6 1 -13 -6 -15 -15 -2 -11 2 -18 12 -18 9 0 16 4 16 9 0 6 8 8
18 7 9 -2 26 0 37 5 19 7 19 8 1 8 -18 1 -14 15 5 17 5 1 12 2 15 3 4 0 1 7
-5 15 -10 11 -8 16 8 21 12 3 31 3 43 -1 21 -6 21 -6 5 10 -18 18 -24 62 -7
51 6 -3 10 -13 10 -21 0 -17 16 -19 26 -2 4 6 2 14 -4 16 -7 2 -12 11 -12 19
0 11 8 8 26 -12 l26 -28 -2 29 c-3 47 -1 54 19 54 11 0 21 3 24 8 2 4 2 1 1
-5 -4 -17 8 -17 25 0 10 10 11 8 5 -7 -5 -14 -3 -17 7 -14 14 6 15 9 4 43 -6
20 -6 20 11 0 l18 -21 23 22 c31 29 29 37 -8 29 -28 -6 -30 -5 -18 7 24 26 72
9 61 -22 -5 -13 -4 -13 10 0 15 14 15 17 -3 36 -10 11 -19 24 -19 30 0 5 5 2
10 -6 9 -13 10 -13 11 0 0 10 3 8 9 -5 7 -17 9 -17 9 -2 1 18 21 25 21 7 0 -5
9 -10 20 -10 11 0 20 5 20 11 0 5 -4 8 -9 5 -4 -3 -16 0 -26 8 -14 10 -16 16
-6 34 6 12 16 22 21 22 14 0 12 -18 -2 -23 -10 -3 -10 -8 1 -18 11 -11 14 -12
18 -1 4 10 9 8 19 -5 13 -17 14 -17 7 1 -5 15 -3 18 10 13 13 -5 17 -1 17 14
0 27 26 54 34 36 5 -9 7 -9 12 1 3 6 12 12 20 12 8 0 14 4 14 10 0 5 -6 7 -14
4 -9 -3 -15 4 -18 20 -3 14 -1 26 3 26 5 0 9 -6 9 -14 0 -7 11 -16 25 -18 15
-3 22 -1 18 5 -3 6 2 16 12 23 10 8 15 17 11 21 -4 4 -16 -3 -26 -17 -21 -27
-26 -21 -10 11 6 10 20 19 30 19 11 0 20 6 20 14 0 8 7 17 16 20 22 9 26 8 18
-6 -5 -7 -3 -8 6 -3 7 4 16 2 21 -6 6 -10 9 -8 9 9 0 13 4 20 10 17 6 -3 10 1
10 10 0 12 -5 15 -16 11 -10 -4 -14 -1 -12 6 3 7 15 14 27 14 15 1 20 -3 17
-12 -3 -7 -1 -16 4 -19 9 -6 14 11 13 43 -1 8 9 13 26 12 45 -3 53 -1 48 15
-4 8 -1 17 4 21 6 3 9 17 6 30 -2 13 1 25 8 28 9 3 11 -4 5 -28 -6 -28 -4 -32
16 -34 12 -1 25 5 28 13 3 8 1 15 -3 15 -5 0 -11 -5 -13 -12 -3 -8 -7 -6 -11
4 -4 13 2 18 26 24 38 8 48 20 41 54 -4 22 -3 22 5 5 l10 -20 0 20 c1 16 3 17
10 6 8 -12 12 -12 25 -2 9 8 24 10 38 6 l23 -7 -24 26 c-14 14 -21 29 -18 33
4 3 7 2 7 -4 0 -6 9 -13 20 -16 15 -4 20 0 20 15 0 10 -4 16 -10 13 -6 -3 -7
1 -4 9 6 16 24 22 24 8 0 -4 14 -9 30 -10 16 -1 30 2 30 8 0 5 5 10 11 10 6 0
8 -7 4 -18 -5 -13 -3 -14 6 -5 16 16 1 35 -22 28 -18 -6 -19 -4 -8 12 8 14 20
18 43 15 25 -4 29 -2 20 9 -6 8 -14 23 -18 34 -7 18 -5 18 17 -3 29 -27 47
-14 47 35 0 26 3 31 17 26 11 -4 12 -8 5 -11 -22 -7 -12 -29 13 -29 13 -1 22
3 19 8 -3 5 0 18 6 29 8 15 8 20 -2 20 -9 0 -9 3 -1 11 6 6 10 17 9 23 -2 6
-1 8 1 4 3 -5 19 -8 37 -8 33 0 57 18 69 53 5 12 13 16 25 13 13 -5 21 1 30
21 l12 28 -6 -30 c-5 -29 -4 -29 20 10 17 27 25 34 26 22 0 -10 6 -24 13 -32
15 -14 21 -8 60 65 11 19 33 49 49 65 29 30 29 30 20 4 -13 -32 -2 -53 16 -33
7 8 8 14 2 14 -5 0 -10 5 -10 10 0 6 14 10 31 10 29 0 31 2 25 28 -4 15 -3 23
1 17 13 -16 43 -17 43 -1 0 8 -6 16 -12 19 -10 4 -10 7 0 18 10 11 12 10 12
-5 0 -9 4 -15 9 -11 6 3 14 -2 19 -10 8 -15 10 -15 23 1 12 16 12 17 -3 11
-19 -7 -24 9 -9 31 7 11 9 11 14 -2 4 -9 12 -16 19 -16 11 0 11 2 0 8 -7 5
-10 16 -7 25 5 12 2 14 -14 10 -16 -4 -21 -1 -20 13 0 11 3 14 6 6 6 -16 23
-6 23 14 0 8 -4 12 -10 9 -6 -3 -10 -1 -10 4 0 6 7 11 15 11 8 0 15 -7 15 -15
0 -18 12 -19 28 -3 7 7 12 9 12 5 0 -4 10 -3 22 4 17 9 20 9 16 -2 -3 -8 -1
-23 3 -34 l9 -20 -1 20 c-2 34 1 41 11 25 8 -12 10 -9 10 13 0 26 1 27 16 12
9 -9 19 -14 22 -11 3 3 -4 14 -16 24 -19 17 -20 21 -7 38 14 18 14 18 9 -2 -4
-15 0 -23 14 -26 17 -5 21 1 26 34 4 21 4 43 1 48 -3 4 9 6 27 3 28 -4 30 -3
19 11 -8 9 -9 16 -3 16 5 0 16 -12 23 -27 8 -16 20 -29 27 -31 10 -2 10 2 3
17 -8 14 -7 21 2 25 9 5 9 7 0 12 -7 3 -13 10 -13 15 0 6 8 6 19 -1 14 -7 21
-6 24 3 3 6 6 2 6 -10 1 -14 -5 -23 -14 -23 -9 0 -12 -6 -8 -17 4 -11 8 -12
11 -5 2 7 13 12 25 12 16 0 18 3 9 9 -19 12 -11 54 11 57 29 4 33 14 10 20
-12 3 -23 15 -26 26 -4 14 -2 18 10 14 8 -3 18 -6 23 -6 4 0 11 -10 15 -22 4
-15 8 -18 12 -10 3 8 9 10 16 3 9 -6 12 -2 13 15 2 21 -1 22 -18 13 -18 -10
-19 -8 -13 13 4 12 12 28 18 33 7 7 8 5 4 -6 -3 -9 0 -16 9 -16 7 0 11 4 8 9
-3 4 0 8 5 8 14 0 51 -37 51 -50 0 -5 3 -10 8 -10 4 0 8 25 9 56 2 30 8 63 14
72 8 14 9 11 4 -11 -3 -16 -1 -35 5 -43 7 -7 8 -19 4 -25 -4 -8 -3 -9 4 -5 7
4 10 22 6 44 -2 20 -1 32 3 26 4 -6 15 -13 24 -16 12 -5 15 -1 11 17 -3 17
-10 22 -23 20 -11 -2 -19 2 -19 10 0 21 28 26 40 7 8 -12 13 -14 16 -4 3 6 10
9 15 6 6 -3 3 -11 -7 -18 -12 -9 -14 -15 -6 -20 7 -4 12 -2 12 4 0 7 6 10 14
7 11 -5 14 2 11 31 -3 20 -2 29 1 20 6 -20 34 -25 34 -7 0 8 5 7 15 -1 13 -11
14 -10 9 4 -5 12 0 16 18 16 26 0 29 11 30 90 0 14 3 19 5 12 4 -9 9 -10 18
-2 17 14 31 -18 15 -34 -8 -8 -9 -6 -5 7 4 10 2 17 -4 17 -12 0 -14 -11 -5
-35 6 -14 8 -14 20 4 8 11 11 27 7 37 -4 11 -3 15 4 11 6 -4 23 -3 36 2 18 7
27 7 31 -2 2 -7 5 -2 5 10 1 12 -4 25 -9 28 -13 8 -3 25 15 25 9 0 12 -6 9
-15 -4 -10 0 -15 10 -15 9 0 19 7 23 16 6 15 7 15 19 0 6 -10 15 -13 18 -8 8
13 -5 53 -15 46 -5 -3 -9 -2 -8 3 1 4 1 14 0 20 -1 17 -7117 17 -7171 0z
m7135 -16 c3 -5 1 -12 -5 -16 -5 -3 -10 1 -10 9 0 18 6 21 15 7z m-88 -43 c-3
-8 -6 -5 -6 6 -1 11 2 17 5 13 3 -3 4 -12 1 -19z m30 0 c-3 -8 -6 -5 -6 6 -1
11 2 17 5 13 3 -3 4 -12 1 -19z m-176 -160 c-11 -22 -11 -21 -6 5 3 17 2 26
-4 23 -5 -4 -7 3 -3 16 l5 22 10 -22 c7 -15 6 -29 -2 -44z m54 14 c-4 -4 -10
-1 -12 6 -3 6 -9 10 -14 7 -5 -4 -6 1 -3 9 5 14 8 14 21 0 9 -8 12 -18 8 -22z
m-216 -124 c0 -18 -3 -27 -6 -20 -2 6 -9 10 -14 6 -5 -3 -9 0 -9 5 0 6 5 11
10 11 6 0 10 7 10 15 0 8 2 15 5 15 3 0 5 -15 4 -32z m-192 -110 c-3 -8 -6 -5
-6 6 -1 11 2 17 5 13 3 -3 4 -12 1 -19z m-134 -103 c-3 -9 -8 -14 -10 -11 -3
3 -2 9 2 15 9 16 15 13 8 -4z m-70 -22 c-7 -2 -13 -14 -14 -26 0 -12 -3 -16
-6 -9 -7 18 4 42 19 41 10 0 10 -2 1 -6z m-36 -45 c-3 -7 -5 -2 -5 12 0 14 2
19 5 13 2 -7 2 -19 0 -25z m-97 -88 c0 -5 -5 -10 -11 -10 -5 0 -7 5 -4 10 3 6
8 10 11 10 2 0 4 -4 4 -10z m-93 -74 c-5 -16 -27 -19 -27 -3 0 7 7 14 15 14 9
0 14 -5 12 -11z m-117 -75 c0 -5 -7 -16 -15 -25 -8 -8 -15 -21 -16 -28 0 -7
-5 -2 -10 11 -5 13 -8 29 -5 35 2 6 5 2 6 -9 1 -19 2 -18 10 3 9 22 30 31 30
13z m-4670 -266 c0 -122 -2 -145 -15 -145 -13 0 -15 23 -15 145 0 122 2 145
15 145 13 0 15 -23 15 -145z m437 119 c7 -20 -17 -37 -34 -23 -15 13 -6 39 13
39 8 0 17 -7 21 -16z m900 0 c8 -22 -18 -37 -36 -20 -7 8 -10 19 -7 25 10 16
36 13 43 -5z m-1968 -123 c28 -71 51 -132 51 -135 0 -3 -8 -6 -18 -6 -13 0
-22 12 -31 40 -12 40 -12 40 -62 40 -49 0 -51 -1 -67 -40 -10 -24 -24 -40 -34
-40 -14 0 -9 19 29 113 25 61 49 122 54 135 5 12 13 22 18 22 5 0 32 -58 60
-129z m4981 115 c0 -3 -4 -8 -10 -11 -5 -3 -10 -1 -10 4 0 6 5 11 10 11 6 0
10 -2 10 -4z m-5 -36 c3 -5 1 -10 -4 -10 -6 0 -11 5 -11 10 0 6 2 10 4 10 3 0
8 -4 11 -10z m-4662 -31 l39 -10 -4 -114 c-4 -142 -12 -155 -100 -155 -44 0
-58 3 -58 15 0 11 12 14 49 12 55 -2 65 4 75 46 6 26 5 28 -16 21 -72 -25
-118 8 -118 85 0 51 19 87 54 101 28 12 35 12 79 -1z m195 -5 c19 -13 22 -24
22 -90 0 -43 4 -74 10 -74 6 0 10 -5 10 -10 0 -6 -17 -11 -37 -11 -21 0 -53 0
-72 -1 -34 -1 -51 13 -51 44 0 25 26 46 70 58 43 12 53 37 25 60 -12 10 -24
11 -51 2 -31 -9 -35 -8 -32 6 3 14 30 26 73 31 6 0 21 -6 33 -15z m315 -16 c9
-11 17 -31 17 -44 0 -23 -3 -24 -65 -24 -58 0 -65 -2 -65 -20 0 -44 57 -73
100 -50 13 7 19 6 23 -5 7 -18 -54 -39 -85 -30 -46 14 -68 45 -68 95 0 50 19
86 54 100 29 13 68 3 89 -22z m167 6 c0 -8 -8 -14 -17 -14 -36 0 -53 -30 -53
-97 0 -49 -3 -63 -15 -63 -12 0 -15 17 -15 95 0 78 3 95 15 95 8 0 15 -5 15
-10 0 -6 11 -5 27 4 30 15 43 13 43 -10z m245 5 c5 -5 11 -43 13 -84 2 -41 8
-75 13 -75 5 0 9 -5 9 -11 0 -7 -12 -9 -32 -7 -18 3 -45 1 -60 -4 -38 -13 -68
5 -68 41 0 34 13 46 60 58 28 7 36 15 38 36 4 33 -16 43 -59 28 -26 -9 -30 -8
-27 6 6 30 86 38 113 12z m297 7 c24 -13 32 -13 60 1 28 14 35 14 57 2 24 -14
26 -20 29 -102 2 -73 0 -87 -13 -87 -12 0 -15 14 -15 75 0 62 -3 76 -18 84
-12 7 -26 6 -43 -2 -22 -11 -24 -20 -27 -85 -2 -55 -6 -72 -17 -72 -12 0 -15
16 -15 75 0 63 -3 76 -19 85 -14 7 -27 7 -45 -2 -24 -11 -26 -16 -26 -85 0
-57 -3 -73 -14 -73 -19 0 -22 17 -18 112 3 76 5 80 25 75 12 -3 31 -1 42 3 27
12 27 12 57 -4z m320 -9 c4 -7 8 -45 8 -84 0 -58 3 -73 15 -73 8 0 15 -5 15
-11 0 -7 -12 -9 -32 -6 -18 2 -44 0 -57 -5 -30 -11 -58 -2 -72 23 -16 30 12
66 62 79 36 10 40 14 37 38 -3 26 -5 27 -50 24 -55 -3 -64 13 -15 27 36 11 78
5 89 -12z m108 -77 c0 -82 -3 -100 -15 -100 -12 0 -15 17 -15 94 0 88 3 97 28
105 1 1 2 -44 2 -99z m148 94 c12 -4 22 -13 22 -21 0 -11 -7 -13 -30 -8 -30 7
-60 -7 -60 -27 0 -5 20 -17 45 -28 59 -25 71 -62 31 -97 -15 -13 -35 -23 -44
-23 -33 0 -62 13 -62 27 0 11 8 12 35 7 34 -6 65 7 65 27 0 5 -20 19 -45 31
-63 31 -73 81 -22 106 26 13 35 14 65 6z m-1048 -99 c0 -78 -3 -95 -15 -95
-12 0 -15 17 -15 95 0 78 3 95 15 95 12 0 15 -17 15 -95z m3810 51 c0 -3 -4
-8 -10 -11 -5 -3 -10 -1 -10 4 0 6 5 11 10 11 6 0 10 -2 10 -4z m-203 -142
c-3 -3 -12 -4 -19 -1 -8 3 -5 6 6 6 11 1 17 -2 13 -5z m-117 -94 c8 -15 8 -20
-3 -20 -7 0 -13 9 -13 20 0 11 1 20 3 20 1 0 7 -9 13 -20z m-10 -62 c0 -5 -11
-8 -25 -8 -15 0 -25 6 -25 15 0 9 6 12 15 9 9 -4 15 0 15 7 0 11 3 11 10 -1 5
-8 10 -18 10 -22z m-3720 -183 c0 -132 -2 -145 -18 -145 -16 0 -17 10 -15 103
2 56 3 121 3 145 0 31 4 42 15 42 13 0 15 -23 15 -145z m850 -1 c0 -144 0
-146 -21 -141 -12 3 -32 1 -45 -5 -31 -14 -78 5 -93 38 -19 43 -14 100 13 131
20 23 32 28 70 27 l46 -1 0 49 c0 36 4 48 15 48 13 0 15 -23 15 -146z m2740
131 c0 -8 -4 -15 -10 -15 -5 0 -7 7 -4 15 4 8 8 15 10 15 2 0 4 -7 4 -15z
m-40 -25 c0 -5 -2 -10 -4 -10 -3 0 -8 5 -11 10 -3 6 -1 10 4 10 6 0 11 -4 11
-10z m-3250 -35 c0 -21 5 -25 30 -25 20 0 30 -5 30 -15 0 -10 -10 -15 -30 -15
l-31 0 3 -67 c3 -67 3 -68 31 -66 17 1 27 -3 27 -12 0 -20 -43 -29 -69 -15
-18 9 -21 20 -21 84 0 65 -2 74 -20 79 -11 3 -20 10 -20 16 0 6 9 11 20 11 13
0 20 7 20 18 0 10 3 22 7 25 13 14 23 6 23 -18z m-1165 -25 c34 -13 23 -31
-15 -24 -58 12 -103 -71 -66 -122 11 -14 26 -19 60 -18 25 0 46 -3 46 -8 0
-15 -52 -29 -82 -23 -82 18 -94 156 -16 190 40 17 40 17 73 5z m180 -2 c73
-33 71 -157 -3 -187 -63 -26 -122 19 -122 93 0 79 60 124 125 94z m227 -2 c24
-13 32 -13 60 1 28 14 35 14 57 2 24 -14 26 -20 29 -102 2 -73 0 -87 -13 -87
-12 0 -15 14 -15 75 0 62 -3 76 -18 84 -12 7 -26 6 -43 -2 -22 -11 -24 -20
-27 -85 -2 -55 -6 -72 -17 -72 -12 0 -15 16 -15 75 0 63 -3 76 -19 85 -14 7
-27 7 -45 -2 -24 -11 -26 -16 -26 -85 0 -58 -3 -73 -15 -73 -12 0 -15 17 -15
96 0 95 0 96 23 91 12 -3 31 -1 42 3 27 12 27 12 57 -4z m267 0 c76 38 140
-60 96 -145 -17 -34 -62 -55 -98 -45 -26 6 -27 5 -27 -40 0 -34 -4 -46 -15
-46 -13 0 -15 22 -15 139 0 103 3 140 13 144 6 2 13 -2 15 -9 2 -9 9 -9 31 2z
m384 -18 c9 -11 17 -31 17 -44 0 -23 -3 -24 -66 -24 -65 0 -65 0 -62 -27 4
-39 47 -62 88 -46 25 9 30 9 30 -3 0 -24 -50 -37 -91 -25 -106 32 -67 217 41
195 14 -3 33 -14 43 -26z m315 16 c19 -13 22 -24 22 -88 0 -61 3 -75 18 -81
16 -7 15 -8 -3 -15 -11 -4 -28 -4 -37 1 -10 6 -27 5 -42 -2 -20 -10 -30 -9
-51 5 -47 31 -26 77 45 96 28 8 40 16 40 29 0 31 -24 44 -64 32 -28 -7 -36 -7
-36 4 0 13 40 33 70 34 9 1 26 -6 38 -15z m526 -5 c17 -14 26 -30 26 -50 l0
-29 -65 0 c-58 0 -65 -2 -65 -20 0 -11 9 -29 21 -41 20 -20 30 -21 88 -7 31 7
19 -21 -12 -31 -71 -24 -130 18 -129 89 1 89 75 137 136 89z m2328 -71 c-7 -7
-12 -8 -12 -2 0 14 12 26 19 19 2 -3 -1 -11 -7 -17z m18 -34 c0 -8 -5 -12 -10
-9 -6 4 -8 11 -5 16 9 14 15 11 15 -7z m-300 -174 c0 -5 -4 -10 -10 -10 -5 0
-10 5 -10 10 0 6 5 10 10 10 6 0 10 -4 10 -10z m-83 -72 c-3 -7 -5 -2 -5 12 0
14 2 19 5 13 2 -7 2 -19 0 -25z m-51 -56 c-11 -10 -15 4 -8 28 l7 25 3 -23 c2
-13 1 -26 -2 -30z m-3826 29 c0 -6 -12 -16 -27 -23 -19 -9 -29 -22 -31 -41 -3
-23 0 -27 22 -27 16 0 26 -6 26 -15 0 -9 -9 -15 -25 -15 -25 0 -25 -1 -25 -80
0 -64 -3 -80 -15 -80 -12 0 -15 16 -15 80 0 64 -3 80 -15 80 -8 0 -15 7 -15
15 0 8 7 15 15 15 9 0 15 9 15 24 0 33 37 76 66 76 13 0 24 -4 24 -9z m1020
-136 l0 -144 -37 -1 c-21 -1 -51 -1 -67 -2 -42 -1 -66 32 -66 93 0 67 32 104
89 104 l41 0 0 41 c0 43 5 54 27 54 10 0 13 -31 13 -145z m1567 35 c-10 -149
-35 -144 -36 8 -1 77 0 82 20 82 21 0 22 -3 16 -90z m-2307 35 c0 -22 4 -25
36 -25 45 0 41 -24 -5 -28 l-32 -3 2 -60 c2 -61 17 -86 44 -76 22 9 28 -11 6
-22 -28 -15 -38 -14 -61 9 -16 16 -20 33 -20 85 0 51 -3 65 -15 65 -22 0 -18
27 5 33 12 3 20 14 20 26 0 12 5 21 10 21 6 0 10 -11 10 -25z m3387 -7 c-3 -8
-6 -5 -6 6 -1 11 2 17 5 13 3 -3 4 -12 1 -19z m-3499 -44 c46 -52 20 -152 -44
-168 -107 -27 -160 146 -59 190 39 17 74 10 103 -22z m331 25 c107 -38 57
-221 -53 -193 -81 20 -90 163 -12 194 28 12 28 12 65 -1z m189 5 c38 -11 27
-34 -15 -31 -55 3 -57 -26 -3 -53 45 -23 55 -39 46 -73 -7 -31 -49 -49 -92
-41 -50 9 -46 36 4 28 28 -4 41 -2 51 10 16 20 8 33 -34 50 -61 26 -67 84 -12
106 28 11 27 11 55 4z m506 -8 c78 -32 65 -171 -18 -192 -13 -3 -39 1 -59 9
-28 12 -38 24 -48 55 -15 52 2 106 39 127 34 18 45 18 86 1z m329 -18 c9 -11
17 -31 17 -44 0 -23 -3 -24 -65 -24 -63 0 -65 -1 -65 -25 0 -37 42 -61 85 -48
26 9 35 8 39 -3 9 -23 -66 -40 -105 -24 -57 24 -74 114 -30 164 35 40 91 42
124 4z m145 26 c37 -10 26 -31 -15 -30 -53 1 -51 -27 2 -57 35 -20 40 -27 40
-57 0 -28 -5 -37 -28 -48 -35 -17 -97 -8 -97 14 0 11 9 13 38 8 46 -7 74 15
52 41 -7 8 -19 15 -27 15 -8 0 -25 11 -38 24 -27 27 -24 58 8 81 24 17 31 18
65 9z m114 -5 c3 -9 10 -9 27 0 13 7 34 10 47 7 27 -7 64 -60 64 -92 0 -69
-53 -122 -111 -110 -28 5 -29 5 -29 -39 0 -38 -3 -45 -20 -45 -19 0 -20 7 -20
139 0 136 2 147 32 150 3 1 8 -4 10 -10z m283 -3 c16 -11 20 -30 23 -90 2 -42
8 -76 13 -76 15 0 10 -18 -7 -24 -9 -4 -22 -1 -30 5 -9 7 -19 7 -34 -1 -28
-15 -67 -5 -80 21 -17 30 11 66 60 79 33 9 40 15 40 35 0 28 -27 40 -63 26
-24 -9 -37 -6 -37 10 0 9 48 27 76 28 11 1 29 -5 39 -13z m193 8 c39 -11 26
-33 -19 -31 -49 2 -69 -19 -69 -74 0 -47 20 -64 76 -61 50 2 58 -13 17 -30
-39 -17 -39 -17 -19 -31 36 -26 -5 -78 -48 -61 -22 9 -20 24 4 24 11 0 20 5
20 10 0 6 -7 10 -16 10 -12 0 -15 6 -10 24 5 19 1 26 -14 31 -22 7 -50 53 -50
83 0 42 23 84 54 98 36 15 43 16 74 8z m185 -6 c100 -53 48 -217 -61 -193 -40
8 -63 35 -69 83 -11 85 61 147 130 110z m1157 -62 c0 -2 -7 -6 -15 -10 -8 -3
-15 -1 -15 4 0 6 7 10 15 10 8 0 15 -2 15 -4z m-1011 -95 c16 -28 -14 -51 -36
-28 -13 13 -14 19 -3 31 17 21 27 20 39 -3z m761 -86 c0 -8 -7 -15 -15 -15
-13 0 -14 3 -3 15 16 18 18 18 18 0z m17 -37 c-3 -7 -5 -2 -5 12 0 14 2 19 5
13 2 -7 2 -19 0 -25z m-77 -23 c0 -8 -7 -15 -15 -15 -16 0 -20 12 -8 23 11 12
23 8 23 -8z m-7 -42 c-7 -2 -19 -2 -25 0 -7 3 -2 5 12 5 14 0 19 -2 13 -5z
m-146 -55 c-3 -8 -6 -5 -6 6 -1 11 2 17 5 13 3 -3 4 -12 1 -19z m-13 -14 c3
-8 2 -12 -4 -9 -6 3 -10 10 -10 16 0 14 7 11 14 -7z m-190 -149 c-4 -8 -8 -15
-10 -15 -2 0 -4 7 -4 15 0 8 4 15 10 15 5 0 7 -7 4 -15z m-174 -115 c0 -5 -4
-10 -10 -10 -5 0 -10 5 -10 10 0 6 5 10 10 10 6 0 10 -4 10 -10z m60 -17 c0
-13 -3 -13 -15 -3 -8 7 -12 16 -9 21 8 13 24 1 24 -18z m-190 -68 c0 -8 -4
-15 -10 -15 -5 0 -7 7 -4 15 4 8 8 15 10 15 2 0 4 -7 4 -15z m3 -50 c-3 -9 -8
-14 -10 -11 -3 3 -2 9 2 15 9 16 15 13 8 -4z m-47 -24 c-1 -18 -5 -27 -13 -24
-7 3 -13 9 -13 14 0 8 20 36 26 39 1 0 1 -13 0 -29z m-99 -44 c-6 -19 -23 -18
-23 2 0 11 5 17 14 14 7 -3 11 -10 9 -16z m-104 -78 c-5 -5 -20 -5 -33 -2
l-25 7 25 6 c28 8 46 2 33 -11z m-232 -143 c17 10 9 -12 -11 -34 -23 -25 -35
-27 -46 -10 -4 7 -3 8 5 4 18 -11 40 12 35 37 -2 12 -2 16 2 9 3 -6 10 -10 15
-6z m-164 -98 c-3 -8 -6 -5 -6 6 -1 11 2 17 5 13 3 -3 4 -12 1 -19z"/>
<path d="M747 2173 c-9 -27 -17 -51 -17 -55 0 -5 18 -8 40 -8 l39 0 -14 40
c-26 73 -29 74 -48 23z"/>
<path d="M1060 2160 c-27 -27 -27 -90 0 -115 16 -15 26 -17 48 -9 25 9 27 14
30 68 3 61 -5 76 -40 76 -10 0 -27 -9 -38 -20z"/>
<path d="M1269 2071 c-20 -16 -22 -22 -11 -33 10 -10 18 -10 40 2 33 19 42 50
14 50 -11 0 -30 -9 -43 -19z"/>
<path d="M1555 2158 c-15 -23 -15 -23 21 -26 52 -5 67 3 54 28 -14 27 -55 26
-75 -2z"/>
<path d="M1993 2080 c-26 -10 -31 -38 -9 -46 22 -8 56 14 56 36 0 22 -12 24
-47 10z"/>
<path d="M2613 2080 c-24 -10 -30 -34 -12 -46 17 -10 59 17 59 38 0 20 -13 22
-47 8z"/>
<path d="M2383 1674 c-21 -21 -24 -32 -19 -62 6 -43 31 -65 60 -56 37 11 46
26 46 75 0 38 -4 51 -19 59 -29 15 -39 13 -68 -16z"/>
<path d="M890 1680 c-39 -39 -16 -130 33 -130 31 0 44 11 57 44 12 32 6 62
-18 89 -20 23 -47 22 -72 -3z"/>
<path d="M1452 1684 c-18 -12 -22 -25 -22 -69 0 -49 2 -55 24 -61 39 -9 64 4
76 40 13 41 4 83 -20 96 -25 13 -32 13 -58 -6z"/>
<path d="M1745 1678 c-15 -23 -15 -23 21 -26 52 -5 67 3 54 28 -14 27 -55 26
-75 -2z"/>
<path d="M2089 1591 c-20 -16 -22 -22 -11 -33 10 -10 18 -10 40 2 33 19 42 50
14 50 -11 0 -30 -9 -43 -19z"/>
<path d="M2602 1688 c-23 -23 -13 -38 26 -38 46 0 55 6 41 31 -11 21 -49 25
-67 7z"/>
<path d="M1670 1200 c-32 -32 -23 -109 15 -124 8 -3 26 -1 40 4 23 9 25 15 25
69 0 44 -4 60 -16 65 -27 10 -43 7 -64 -14z"/>
<path d="M837 1202 c-23 -26 -22 -94 1 -115 41 -37 92 -5 92 58 0 64 -56 98
-93 57z"/>
<path d="M1200 1200 c-39 -39 -15 -130 34 -130 34 0 56 31 56 77 0 65 -49 94
-90 53z"/>
<path d="M1886 1198 c-22 -31 -20 -91 2 -111 42 -38 92 -5 92 60 0 62 -63 96
-94 51z"/>
<path d="M2203 1208 c-27 -35 -25 -38 22 -38 42 0 46 2 43 23 -4 26 -48 36
-65 15z"/>
<path d="M2578 1208 c-26 -9 -28 -13 -28 -69 0 -54 2 -59 25 -65 16 -4 35 0
51 10 22 15 25 23 22 63 -4 55 -28 76 -70 61z"/>
<path d="M2773 1120 c-26 -10 -31 -38 -9 -46 22 -8 56 14 56 36 0 22 -12 24
-47 10z"/>
<path d="M3142 1204 c-42 -29 -20 -134 29 -134 10 0 29 10 40 21 37 37 11 129
-36 129 -6 0 -21 -7 -33 -16z"/>
<path d="M7316 3265 c11 -26 64 -47 64 -25 0 6 -7 10 -15 10 -8 0 -15 8 -15
18 0 14 -2 15 -10 2 -6 -10 -10 -11 -10 -2 0 6 -4 12 -10 12 -5 0 -7 -7 -4
-15z"/>
<path d="M7360 3270 c0 -5 7 -10 15 -10 8 0 15 5 15 10 0 6 -7 10 -15 10 -8 0
-15 -4 -15 -10z"/>
<path d="M10225 3269 c-4 -6 -13 -8 -19 -6 -7 3 -19 -3 -26 -13 -13 -18 -14
-18 -27 -2 -13 15 -13 15 -4 -5 13 -27 14 -46 2 -39 -5 3 -12 -1 -15 -10 -9
-23 -29 -5 -22 20 5 20 5 20 -9 2 -16 -21 -20 -47 -7 -45 17 3 32 -2 32 -10 0
-5 -12 -6 -27 -2 -18 5 -27 14 -26 25 1 15 -3 14 -23 -5 -13 -12 -24 -30 -24
-40 0 -30 -11 -48 -26 -42 -10 3 -14 -2 -14 -20 0 -20 -4 -24 -25 -22 -14 2
-23 -1 -19 -6 6 -10 -20 -41 -28 -34 -3 3 -10 -6 -18 -19 -14 -26 -7 -61 10
-51 19 12 10 -4 -20 -33 -16 -17 -30 -39 -30 -49 0 -15 -2 -16 -10 -3 -9 13
-10 13 -10 0 0 -11 -4 -9 -12 5 -7 11 -13 25 -14 30 0 6 -2 17 -3 25 -1 12 -4
11 -12 -3 -6 -10 -8 -25 -5 -34 7 -18 -12 -46 -25 -37 -15 9 -10 24 6 18 8 -4
15 -2 15 4 0 5 -7 13 -16 16 -19 7 -68 -39 -58 -56 5 -7 3 -8 -6 -3 -8 5 -18
1 -28 -11 -13 -18 -14 -18 -8 6 l7 25 -14 -23 c-7 -12 -17 -19 -21 -15 -4 4
-6 1 -4 -7 2 -10 -3 -14 -16 -12 -10 2 -23 -2 -27 -10 -14 -21 -10 -31 6 -18
12 10 18 10 29 1 11 -10 16 -8 21 9 6 20 7 21 21 3 16 -22 18 -47 2 -37 -18
11 3 -19 24 -34 24 -18 14 -32 -22 -32 -23 0 -28 4 -23 16 5 13 8 13 15 2 7
-9 8 -8 4 5 -3 10 -6 21 -6 24 0 2 -7 -3 -16 -12 -9 -9 -23 -14 -30 -11 -10 4
-14 -3 -14 -20 0 -19 -4 -25 -14 -21 -11 4 -13 1 -9 -11 5 -14 3 -15 -8 -4
-20 19 -31 14 -19 -8 14 -26 5 -40 -27 -40 -19 0 -24 -4 -19 -16 5 -13 3 -14
-7 -6 -10 8 -16 6 -26 -10 -11 -17 -15 -18 -23 -7 -7 11 -11 11 -15 2 -2 -7
-11 -13 -19 -13 -7 0 -11 -6 -8 -13 2 -7 -10 -19 -32 -29 -34 -16 -36 -16 -31
2 3 10 -1 21 -8 24 -17 6 -25 -3 -25 -28 0 -17 2 -18 10 -6 8 13 10 13 10 -2
0 -9 -6 -23 -12 -30 -38 -39 -41 -47 -24 -63 20 -21 20 -31 0 -39 -13 -5 -15
-2 -11 14 7 27 -13 38 -29 16 -7 -10 -15 -13 -18 -7 -4 5 -23 -6 -44 -25 -37
-34 -52 -38 -60 -15 -2 7 5 15 17 18 12 3 21 11 21 17 0 7 7 21 15 32 13 16
14 16 9 2 -3 -10 -1 -18 5 -18 6 0 11 9 11 20 0 32 -23 24 -53 -20 -13 -18
-17 -20 -17 -8 0 9 5 20 11 24 6 3 9 18 6 32 -6 32 2 59 13 42 5 -8 17 -1 39
20 36 36 40 50 11 43 -11 -3 -20 -11 -20 -19 0 -7 -4 -15 -9 -18 -5 -4 -7 3
-4 15 5 19 4 20 -16 10 -16 -9 -21 -9 -21 0 0 8 -4 8 -15 -1 -8 -7 -12 -17 -8
-23 4 -7 0 -8 -11 -4 -13 5 -19 1 -23 -13 -3 -11 -9 -20 -13 -20 -5 0 -12 -9
-15 -20 -4 -11 -11 -17 -17 -14 -7 5 -9 -2 -4 -19 4 -16 2 -27 -6 -29 -9 -3
-9 -6 0 -12 7 -4 12 -2 12 3 0 6 13 11 30 11 24 0 28 -3 23 -17 -5 -15 -3 -14
10 2 15 19 16 18 13 -25 -1 -25 -9 -56 -16 -70 -8 -14 -13 -30 -12 -35 1 -6
-9 -12 -23 -13 -26 -2 -34 12 -14 24 8 4 6 10 -6 17 -14 7 -21 6 -30 -7 -7 -9
-17 -16 -23 -16 -6 0 -9 -7 -6 -15 4 -8 1 -15 -4 -15 -17 0 -42 -30 -41 -48 0
-14 2 -13 9 3 7 17 9 17 9 3 1 -11 9 -18 20 -18 20 0 51 -25 51 -41 0 -5 -9
-4 -19 3 -15 9 -24 8 -45 -5 -35 -24 -50 -22 -36 3 8 16 8 20 -3 20 -8 0 -19
10 -25 23 -6 12 -11 16 -11 9 -1 -7 -6 -10 -12 -6 -8 4 -8 0 0 -15 13 -23 6
-45 -11 -35 -6 4 -14 0 -19 -7 -7 -11 -9 -11 -9 2 0 9 -7 16 -15 16 -11 0 -13
-6 -9 -20 4 -14 3 -17 -6 -12 -7 4 -18 -2 -26 -14 -9 -12 -20 -19 -25 -16 -14
10 -11 -15 5 -31 13 -12 15 -10 21 16 8 35 16 37 32 11 15 -23 -2 -50 -51 -81
-51 -31 -75 -34 -70 -7 2 12 2 16 -2 9 -3 -6 -10 -10 -14 -7 -5 3 -11 1 -15
-5 -3 -5 -1 -10 5 -10 8 0 10 -10 6 -27 -5 -21 -4 -24 4 -13 8 12 10 11 10 -7
0 -12 -4 -25 -10 -28 -5 -3 -10 -1 -10 6 0 8 -5 7 -17 -2 -15 -12 -16 -12 -10
4 6 16 -8 23 -37 18 -5 -1 -13 4 -17 11 -7 10 -9 9 -9 -4 0 -12 -5 -16 -17
-12 -14 4 -15 4 -5 -4 11 -7 9 -15 -12 -35 -14 -14 -26 -31 -26 -37 0 -5 -7
-10 -16 -10 -8 0 -13 -4 -9 -10 9 -14 -17 -50 -37 -50 -9 0 -21 -7 -26 -17 -7
-12 -17 -14 -42 -10 -27 6 -36 2 -64 -28 -19 -19 -42 -35 -53 -35 -11 0 -26
-11 -33 -25 -7 -14 -19 -25 -27 -25 -7 0 -18 -9 -25 -20 -7 -11 -18 -20 -24
-20 -14 0 -64 -56 -64 -72 0 -8 7 -5 15 6 20 27 38 8 29 -29 -4 -17 -9 -23
-14 -15 -6 9 -12 9 -29 -1 -22 -15 -28 -29 -11 -29 19 0 10 -28 -10 -33 -17
-4 -20 -2 -15 14 4 10 2 19 -3 19 -5 0 -12 -13 -15 -29 -6 -31 -34 -48 -51
-31 -5 5 -17 10 -25 10 -14 0 -14 -1 -1 -10 11 -7 5 -8 -19 -4 -23 5 -36 3
-43 -7 -7 -10 -8 -7 -5 13 3 23 2 25 -15 15 -10 -7 -18 -18 -18 -26 0 -8 -3
-11 -7 -8 -6 7 -43 -46 -43 -63 0 -5 8 -7 18 -4 14 5 15 4 2 -5 -13 -10 -13
-12 0 -21 9 -6 10 -10 3 -10 -6 0 -15 5 -18 10 -8 13 -35 13 -35 -1 0 -5 5 -7
10 -4 6 3 10 -3 10 -14 0 -12 -7 -21 -15 -21 -8 0 -15 -4 -15 -10 0 -5 -9 -10
-19 -10 -10 0 -22 -7 -25 -16 -10 -26 1 -28 30 -5 15 11 33 21 40 21 8 0 14 4
14 9 0 5 10 13 22 17 12 3 28 13 36 20 7 8 20 14 28 14 16 0 110 66 133 93 7
10 21 17 30 17 9 0 22 5 29 12 20 20 85 40 137 43 28 1 64 9 80 18 17 9 36 17
43 17 6 0 12 5 12 10 0 6 5 10 11 10 6 0 26 7 44 16 31 14 35 14 59 -1 14 -10
26 -22 26 -29 0 -6 16 -21 35 -34 23 -14 35 -30 35 -45 0 -17 -2 -19 -10 -7
-5 8 -11 12 -14 9 -3 -2 -1 -11 4 -19 8 -12 20 -5 60 38 28 28 55 52 60 52 6
0 10 7 10 15 0 25 67 20 80 -6 9 -16 14 -18 26 -8 11 9 14 8 14 -9 0 -12 8
-29 19 -39 34 -33 38 -93 5 -93 -8 0 -11 -6 -7 -17 4 -11 3 -14 -5 -9 -7 4
-12 2 -12 -5 0 -8 -4 -8 -15 1 -24 20 -28 6 -6 -21 18 -22 20 -22 26 -6 10 24
35 3 28 -23 -5 -18 1 -22 23 -19 4 0 11 -5 15 -13 5 -8 9 -9 9 -2 0 7 7 14 14
17 10 4 13 1 10 -7 -3 -8 0 -17 7 -22 8 -5 10 -3 4 6 -5 9 -4 11 3 6 7 -4 12
-14 12 -22 0 -8 4 -14 9 -14 15 0 25 21 14 29 -5 3 -9 20 -10 36 -1 25 0 27 7
10 7 -17 9 -16 9 9 1 28 2 28 14 11 8 -10 19 -15 25 -11 5 3 12 1 14 -6 3 -9
6 -9 12 0 4 7 2 12 -3 12 -6 0 -11 7 -11 15 0 8 4 15 8 15 4 0 15 13 25 29 15
25 15 30 2 41 -16 13 -10 34 6 24 5 -3 16 0 24 6 12 10 16 9 21 -4 3 -9 4 -26
1 -37 -4 -15 -2 -19 9 -15 8 3 14 -1 14 -10 0 -8 5 -12 10 -9 6 3 10 -3 10
-15 0 -12 -4 -18 -10 -15 -5 3 -7 0 -4 -8 3 -8 14 -17 26 -20 14 -4 24 2 36
24 17 29 32 38 32 19 0 -18 17 -10 30 15 7 14 17 25 21 25 15 0 18 -30 4 -44
-8 -8 -15 -19 -15 -24 0 -6 -6 -12 -14 -15 -7 -3 -15 -16 -18 -29 l-4 -24 33
17 c51 26 62 38 69 74 7 40 53 89 108 115 31 15 36 19 19 20 -13 0 -23 -4 -23
-8 0 -5 -10 -8 -22 -7 -17 2 -22 7 -20 21 2 10 9 22 15 26 6 4 8 10 3 15 -4 4
-12 0 -17 -9 -11 -19 -39 -13 -39 8 0 23 -55 21 -81 -2 -9 -8 -19 -11 -23 -7
-4 4 -4 -1 0 -11 4 -11 2 -21 -7 -27 -22 -13 -28 -11 -22 10 5 20 -10 23 -34
8 -19 -12 -33 1 -33 29 0 29 -24 42 -45 24 -18 -15 -34 -5 -17 12 6 6 25 11
42 10 16 0 30 4 30 10 0 6 10 8 24 4 17 -4 26 -1 30 11 4 9 9 13 13 10 3 -4
13 -2 20 5 11 9 16 9 22 -1 10 -16 81 16 81 36 0 18 42 33 57 21 6 -5 10 -15
7 -22 -3 -8 4 -16 17 -19 15 -4 20 -11 15 -22 -4 -10 -2 -14 5 -9 7 4 10 2 8
-5 -7 -20 -24 -14 -31 11 -3 13 -6 17 -7 10 -1 -10 -8 -9 -30 4 -25 15 -31 15
-43 3 -10 -10 -11 -19 -3 -35 10 -20 33 -21 46 -2 4 6 9 -2 13 -16 3 -14 11
-26 16 -26 13 0 13 17 0 22 -10 3 78 3 115 -1 17 -1 22 -71 6 -71 -5 0 -14
-19 -19 -42 -18 -73 -38 -118 -60 -134 -12 -8 -26 -12 -32 -9 -5 3 -7 0 -4 -8
3 -10 -4 -17 -20 -21 -13 -3 -27 -15 -31 -25 -3 -10 -18 -22 -32 -26 -15 -3
-42 -20 -61 -36 -18 -16 -37 -27 -42 -24 -4 3 -10 -2 -14 -10 -3 -8 -11 -15
-18 -15 -7 0 -27 -14 -45 -30 -18 -17 -39 -30 -48 -30 -8 0 -18 -7 -21 -15 -4
-8 -11 -12 -18 -8 -6 3 -6 1 2 -8 14 -15 17 -43 3 -35 -14 9 -20 -16 -9 -37 8
-16 0 -22 -24 -18 -5 0 -8 -9 -8 -21 0 -17 -3 -19 -9 -9 -7 10 -13 11 -31 1
-18 -10 -20 -14 -9 -22 10 -6 5 -8 -16 -6 -17 1 -37 -2 -45 -7 -8 -5 -23 -11
-34 -12 -14 -3 -17 1 -11 14 15 37 17 54 11 88 -7 35 -9 36 -42 31 -19 -4 -34
-2 -34 4 0 6 6 10 13 10 15 0 81 59 74 66 -14 15 -84 -12 -114 -43 -18 -19
-38 -33 -45 -30 -10 4 -10 6 0 6 17 1 15 21 -3 21 -19 0 -36 -32 -25 -50 12
-19 -11 -40 -32 -29 -10 6 -14 16 -11 30 4 16 8 17 14 7 7 -10 9 -9 9 4 0 20
-16 32 -25 18 -4 -6 -11 -8 -16 -5 -5 3 -25 1 -46 -4 -28 -8 -34 -8 -25 1 17
17 15 28 -7 28 -10 0 -21 -7 -25 -15 -8 -21 -76 -21 -76 0 0 8 7 15 15 15 8 0
15 3 15 8 0 4 25 18 55 32 30 14 55 28 55 33 0 4 8 7 18 7 10 0 23 5 30 12 7
7 12 8 12 3 0 -5 11 2 24 14 23 22 24 22 30 3 4 -10 4 -27 0 -36 -3 -9 -1 -16
5 -16 6 0 11 7 11 15 0 8 6 15 14 15 7 0 16 11 18 25 3 14 2 25 -2 25 -4 0
-10 7 -14 15 -3 8 -2 14 2 13 4 -1 17 3 30 10 14 8 22 9 22 2 0 -5 5 -10 11
-10 8 0 7 5 -1 15 -14 17 -106 17 -118 -1 -4 -5 -23 -17 -42 -27 -19 -9 -29
-17 -22 -17 19 0 14 -17 -8 -23 -13 -3 -21 1 -25 12 -3 10 -15 17 -27 17 -27
-1 -34 18 -13 36 35 29 85 82 85 89 0 4 -4 11 -10 14 -13 8 -59 -26 -60 -45 0
-13 1 -13 10 0 5 8 10 10 10 4 0 -6 -12 -20 -26 -30 -14 -10 -32 -25 -40 -32
-8 -7 -18 -10 -24 -7 -5 3 -10 -1 -10 -9 0 -9 -7 -16 -15 -16 -9 0 -15 9 -15
23 0 16 3 18 9 9 7 -11 9 -11 14 2 4 9 3 15 -1 15 -23 -4 -30 5 -29 36 1 21 4
30 9 22 6 -9 10 -9 17 2 5 8 11 9 15 3 3 -6 -1 -18 -10 -27 -9 -9 -14 -19 -10
-22 14 -14 41 36 40 76 0 22 3 41 8 41 4 0 8 5 8 11 0 12 -42 1 -52 -14 -3 -6
-22 -11 -42 -12 -36 -1 -41 5 -37 45 2 13 0 13 -8 1 -5 -8 -7 -21 -3 -30 3 -9
2 -13 -3 -9 -15 14 -65 -55 -65 -90 0 -12 7 -25 15 -28 17 -7 21 -34 5 -34 -5
0 -10 -10 -10 -22 -1 -22 -1 -22 -12 -4 -8 15 -8 21 0 24 23 7 12 30 -17 34
-20 3 -33 -1 -43 -14 -7 -10 -20 -18 -28 -17 -31 3 -40 -2 -40 -21 0 -10 -9
-24 -20 -30 -18 -10 -19 -9 -5 25 13 30 13 34 0 29 -21 -8 -19 -2 10 32 29 34
28 48 -6 52 -17 2 -20 0 -11 -6 18 -12 11 -47 -9 -46 -16 1 -18 -33 -4 -56 3
-5 -3 -22 -14 -36 -11 -14 -34 -55 -51 -91 -21 -44 -34 -62 -43 -56 -6 4 -19
8 -27 8 -8 0 -16 7 -16 15 -3 32 -5 34 -17 19 -7 -9 -16 -17 -22 -18 -13 -2
-17 -51 -4 -51 5 0 9 -5 9 -11 0 -6 -6 -9 -14 -6 -7 3 -19 0 -25 -6 -8 -8 -11
-7 -11 6 0 14 -10 17 -55 17 -30 0 -55 -4 -55 -10 0 -5 12 -10 26 -10 15 0 23
-4 19 -11 -4 -6 -13 -8 -21 -5 -8 3 -11 0 -7 -10 4 -11 13 -14 29 -10 17 5 24
2 24 -8 0 -22 -32 -36 -79 -36 -31 0 -41 4 -46 20 -6 19 -7 19 -27 1 -11 -11
-17 -24 -14 -29 3 -6 -1 -17 -9 -25 -8 -9 -15 -23 -15 -32 0 -11 -6 -15 -18
-11 -11 4 -22 -2 -31 -17 -12 -19 -12 -20 0 -10 9 7 20 9 29 3 13 -8 12 -12
-5 -25 -43 -33 -55 -37 -71 -20 -8 8 -22 15 -30 15 -8 0 -14 5 -14 11 0 5 -4
7 -10 4 -15 -9 -12 1 10 42 11 20 18 39 15 41 -2 2 -18 0 -34 -6 -39 -14 -40
-2 -1 27 17 12 28 26 25 32 -7 10 32 79 45 79 4 0 11 7 14 16 5 14 4 15 -8 5
-10 -8 -16 -9 -21 -1 -3 5 -2 10 2 10 5 0 14 9 21 21 8 12 9 18 4 15 -14 -8
-24 36 -11 49 7 7 8 4 3 -10 l-7 -20 23 20 23 20 -5 -22 c-7 -27 4 -30 26 -7
19 18 19 19 6 64 -10 36 -5 74 10 65 9 -5 36 23 28 30 -11 12 -96 -28 -108
-50 -7 -13 -21 -26 -31 -28 -16 -4 -25 -29 -20 -59 0 -4 -10 -3 -24 2 -16 6
-25 6 -25 0 0 -6 -4 -10 -9 -10 -5 0 -7 10 -4 22 l5 23 -16 -23 c-10 -12 -15
-25 -12 -30 2 -4 -7 -12 -20 -19 -13 -6 -24 -7 -24 -2 0 5 -9 9 -20 9 -11 0
-20 -7 -20 -15 0 -8 9 -15 20 -15 11 0 20 -4 20 -9 0 -14 -24 -29 -42 -26 -10
2 -18 -3 -18 -10 0 -8 -5 -17 -12 -21 -7 -5 -8 -3 -3 7 5 8 -2 5 -14 -6 -19
-17 -20 -21 -7 -23 9 -2 16 -8 16 -14 0 -6 -3 -8 -6 -5 -10 9 -41 -29 -60 -73
-16 -37 -50 -67 -62 -55 -4 3 0 10 8 15 8 5 11 12 8 16 -4 3 -19 -8 -33 -25
-15 -17 -33 -31 -41 -31 -8 0 -14 -6 -14 -14 0 -8 -11 -23 -25 -34 -14 -11
-25 -25 -25 -31 0 -6 -3 -11 -7 -11 -5 0 -17 -19 -28 -41 -21 -44 -49 -69 -78
-69 -13 0 -17 5 -13 16 3 8 2 12 -4 9 -6 -3 -10 2 -10 12 0 14 -4 11 -19 -10
-16 -26 -19 -27 -26 -10 -5 10 -8 27 -7 38 0 15 0 16 -4 3 -3 -10 -11 -15 -20
-11 -8 3 -14 0 -14 -6 0 -6 6 -11 13 -11 7 0 18 -10 26 -22 12 -19 11 -23 -3
-33 -9 -7 -16 -18 -16 -26 0 -8 16 4 35 26 22 25 35 34 35 24 0 -22 -95 -119
-117 -119 -10 0 -26 -7 -36 -15 -11 -7 -26 -11 -35 -8 -10 4 -13 2 -8 -6 10
-16 -21 -51 -46 -51 -10 0 -18 -4 -18 -8 0 -4 -13 -13 -30 -19 -16 -6 -30 -7
-30 -2 0 5 -5 9 -11 9 -5 0 -7 -4 -4 -10 3 -6 -1 -7 -10 -4 -20 8 -59 -41 -62
-76 0 -14 -9 -44 -19 -67 -14 -32 -23 -40 -41 -39 -28 1 -28 5 -6 21 16 12 16
15 -7 34 -31 26 -50 26 -57 2 -3 -12 -11 -17 -19 -14 -8 3 -17 -2 -20 -11 -9
-23 -37 -21 -29 3 3 10 -1 24 -10 31 -12 10 -15 10 -15 -4 0 -26 19 -56 35
-56 8 0 15 -5 15 -11 0 -7 -10 -9 -25 -7 -18 4 -29 -1 -40 -18 -17 -26 -38
-33 -29 -10 7 18 -8 27 -26 15 -13 -8 -13 -10 0 -20 11 -7 11 -9 1 -7 -13 4
-81 -56 -81 -72 0 -4 36 -8 79 -9 68 -1 80 1 84 16 4 17 5 17 6 0 1 -14 8 -18
29 -16 15 2 33 7 40 12 7 6 12 5 12 -2 0 -7 39 -11 125 -11 99 0 125 3 125 14
0 24 41 66 65 66 18 0 22 4 18 19 -3 14 2 20 22 23 14 3 23 3 20 0 -2 -3 0
-11 6 -19 9 -10 8 -13 -5 -13 -9 0 -16 -4 -16 -10 0 -15 16 -12 34 5 8 8 17
15 19 15 10 0 -6 -45 -22 -63 -15 -18 -16 -18 -22 5 -6 20 -7 19 -8 -9 l-1
-32 79 0 80 1 6 29 c4 17 13 29 22 29 12 0 14 -6 8 -28 l-7 -27 26 30 c14 17
26 35 26 41 0 21 67 63 110 70 30 5 45 13 52 30 6 13 15 24 20 24 14 0 9 28
-8 44 -14 15 -14 16 0 16 9 0 16 -6 16 -14 0 -9 9 -14 20 -13 11 1 20 7 20 13
0 7 5 14 12 16 7 3 8 10 4 17 -7 11 -10 11 -17 0 -6 -10 -9 -11 -9 -1 0 6 -8
12 -17 13 -11 0 -13 3 -6 6 8 3 11 14 7 30 -5 18 -3 24 5 19 6 -4 11 -19 11
-33 0 -20 3 -23 13 -14 8 6 17 8 20 4 4 -3 7 3 7 15 0 12 5 22 11 22 11 0 8
-40 -7 -88 -5 -19 -1 -17 29 13 19 19 42 35 51 35 9 0 16 8 16 20 0 11 4 20
10 20 9 0 8 -22 -3 -73 -3 -16 -47 -56 -47 -42 0 3 -11 -2 -25 -11 -14 -9 -32
-14 -40 -10 -9 3 -19 -3 -25 -15 -6 -11 -16 -16 -22 -13 -6 4 -8 3 -5 -3 8
-13 64 -8 83 8 13 11 27 14 82 18 6 1 12 9 12 18 0 15 2 14 15 -3 13 -17 14
-17 15 -1 0 17 20 25 20 8 0 -4 8 -8 18 -8 50 0 64 -4 69 -21 3 -14 11 -18 29
-14 19 3 26 0 31 -17 3 -11 9 -18 14 -15 5 3 12 -3 16 -12 6 -16 7 -16 13 1 5
15 9 12 22 -15 12 -25 13 -38 5 -61 -12 -32 -31 -38 -41 -14 -8 21 -91 16 -91
-5 0 -8 -4 -21 -8 -27 -7 -10 36 -13 202 -13 l211 0 2 23 c0 12 1 30 0 40 -1
9 3 17 8 17 6 0 10 -7 10 -16 0 -9 6 -14 13 -11 6 2 11 16 9 31 -1 14 1 26 7
26 15 0 22 -30 11 -50 -6 -10 -10 -28 -10 -39 0 -18 6 -21 41 -21 l42 0 -6 41
c-5 35 -2 41 16 48 12 5 28 6 35 4 8 -3 12 4 12 21 0 32 25 35 35 3 4 -13 8
-17 12 -9 2 6 11 12 19 12 8 0 14 6 14 13 0 8 4 7 10 -3 6 -10 10 -11 10 -2 0
6 7 12 15 12 26 0 57 39 51 65 -4 16 -1 25 10 29 11 4 15 14 12 31 -5 22 2 29
23 27 16 -2 19 49 4 64 -19 20 -19 25 1 17 14 -5 15 -3 5 15 -10 18 -9 22 4
22 16 0 20 -37 16 -127 -2 -37 0 -42 21 -45 l23 -3 -20 -20 c-20 -20 -49 -75
-40 -75 9 0 100 45 106 52 3 4 5 -7 6 -26 1 -20 9 -42 21 -54 18 -18 19 -25 9
-51 -6 -17 -15 -31 -19 -31 -4 0 -8 -7 -8 -15 0 -14 161 -15 1453 -13 l1452 3
47 27 c35 21 53 41 72 81 l26 53 0 302 c-1 166 -5 302 -9 302 -12 0 -70 -30
-76 -39 -2 -5 -16 -7 -29 -6 -18 2 -23 -1 -19 -11 3 -8 0 -14 -5 -14 -6 0 -18
-12 -27 -27 -16 -27 -65 -43 -65 -22 0 8 15 13 32 10 4 0 5 6 2 14 -6 15 -17
19 -41 16 -8 -1 -10 5 -7 14 4 9 13 14 21 11 8 -3 16 2 20 12 3 9 22 32 41 50
27 25 43 32 73 32 22 0 39 4 39 9 0 14 38 20 44 7 2 -6 4 144 5 333 1 332 0
343 -18 338 -14 -3 -20 2 -24 22 -6 32 1 42 14 18 18 -31 29 -18 29 36 l0 52
-20 -25 c-17 -21 -21 -23 -30 -10 -5 8 -10 11 -10 7 0 -4 -9 -3 -20 3 -14 8
-20 8 -20 0 0 -6 -6 -18 -12 -25 -30 -33 -37 -43 -32 -48 3 -3 -1 -14 -8 -26
-10 -16 -10 -25 -1 -40 7 -10 9 -21 6 -24 -9 -9 -33 4 -33 19 0 8 -4 14 -9 14
-5 0 -11 8 -13 18 -2 11 -13 17 -33 17 -40 0 -47 37 -13 66 17 16 23 31 23 65
1 32 -3 43 -12 40 -17 -7 -16 0 3 29 9 14 24 25 34 25 10 0 23 7 30 15 15 18
-1 20 -18 3 -8 -8 -12 -8 -12 -1 0 11 57 37 73 34 4 0 6 2 6 6 -3 21 2 33 16
33 8 0 35 21 60 46 44 44 45 47 45 110 0 36 -5 74 -10 85 -7 13 -7 19 0 19 5
0 10 18 10 40 0 42 -11 50 -36 25 -9 -8 -20 -15 -25 -15 -12 0 -12 27 1 35 6
4 8 16 4 27 -4 14 -2 18 5 14 6 -4 11 -3 11 3 0 19 -19 21 -29 4 -9 -18 -11
-25 -11 -43 0 -5 -9 -10 -21 -10 -15 0 -19 -5 -15 -18 4 -11 -2 -22 -14 -30
-17 -10 -20 -10 -20 5 0 15 -2 16 -10 3 -14 -22 -13 41 2 77 6 15 12 33 12 38
1 6 7 27 15 48 13 40 11 54 -9 42 -6 -4 -8 -15 -5 -26 4 -12 1 -21 -9 -25 -8
-3 -18 -20 -22 -37 -4 -18 -13 -41 -20 -53 -8 -11 -11 -23 -8 -27 3 -3 -3 -19
-15 -35 -12 -17 -21 -41 -21 -55 0 -13 -11 -36 -25 -51 -28 -30 -35 -72 -10
-62 9 3 15 -1 15 -11 0 -12 3 -13 15 -3 8 7 13 16 10 20 -3 5 3 6 13 3 10 -2
24 3 31 11 18 21 34 20 48 -2 9 -16 6 -24 -22 -53 -60 -63 -83 -79 -109 -79
-36 0 -61 54 -40 87 19 30 18 38 -2 19 -21 -21 -31 -20 -45 5 -9 17 -13 19
-20 8 -7 -11 -9 -9 -9 8 0 12 11 34 24 50 43 52 62 100 26 68 -11 -10 -20 -14
-20 -10 0 5 -21 -14 -46 -41 l-46 -48 -23 26 c-20 23 -25 25 -35 13 -9 -10
-17 -12 -30 -5 -20 11 -31 4 -23 -16 3 -9 -2 -14 -16 -14 -14 0 -19 -5 -15
-15 4 -10 0 -15 -11 -15 -11 0 -15 -5 -11 -15 15 -40 -29 -62 -51 -26 -10 16
-7 24 17 52 17 18 32 41 36 51 3 10 10 18 15 18 14 0 11 30 -6 46 -13 13 -15
12 -21 -11 -3 -14 -12 -25 -20 -25 -8 0 -11 -6 -8 -15 4 -8 1 -15 -5 -15 -6 0
-11 -7 -11 -16 0 -14 -3 -14 -16 -3 -8 7 -13 21 -11 31 3 10 2 18 -1 18 -9 0
-52 -93 -52 -112 0 -21 -20 -37 -39 -31 -10 3 -12 2 -5 -4 6 -4 11 -22 10 -40
-1 -24 -4 -29 -14 -21 -13 11 -23 5 -83 -54 -28 -29 -59 -37 -59 -17 0 7 -11
0 -25 -15 -24 -26 -26 -26 -55 -11 -30 16 -34 23 -30 60 1 14 -1 17 -9 9 -7
-6 -14 -34 -18 -62 -3 -29 -9 -52 -14 -52 -5 0 -13 -18 -19 -41 -12 -44 -28
-47 -47 -8 -7 13 -13 18 -13 12 0 -7 -7 -13 -15 -13 -8 0 -15 5 -15 10 0 7 -6
7 -19 0 -23 -12 -34 -1 -20 20 15 25 10 29 -27 23 l-37 -6 7 36 c7 35 6 36
-29 43 -22 4 -47 2 -63 -6 -15 -7 -42 -19 -60 -27 -33 -14 -33 -14 -21 9 19
36 49 61 78 63 14 1 36 3 48 3 14 1 25 12 32 32 6 20 17 30 30 30 11 0 23 5
26 10 3 6 27 10 52 10 41 0 49 4 89 48 24 26 44 50 44 55 0 4 5 7 12 7 6 0 20
7 30 17 31 28 30 8 -2 -40 -46 -69 -37 -78 23 -23 29 27 37 41 37 69 0 20 5
48 10 62 11 28 47 64 66 65 6 0 28 11 48 25 31 21 40 23 56 12 15 -9 25 -9 38
-1 10 7 37 15 60 19 38 6 41 5 36 -12 -5 -17 -4 -16 10 1 9 11 16 30 16 42 0
13 5 26 10 29 6 3 10 15 10 25 0 22 22 30 68 26 18 -1 35 1 38 5 2 4 19 5 38
2 27 -4 38 0 65 26 17 16 31 28 31 25 0 -3 14 3 30 13 17 9 30 23 30 30 0 30
133 61 168 39 6 -4 16 0 23 7 7 7 25 11 41 9 16 -3 28 0 28 7 0 6 5 11 11 11
32 0 39 29 39 164 0 88 -4 137 -11 142 -8 4 -7 9 2 14 10 7 10 19 2 57 -7 29
-8 49 -2 51 12 5 12 162 -1 162 -5 0 -10 -7 -10 -15 0 -8 -4 -15 -10 -15 -5 0
-10 -16 -10 -35 0 -21 -6 -37 -17 -43 -10 -6 -14 -16 -10 -26 4 -10 3 -15 -3
-11 -12 8 -13 -5 -1 -24 6 -9 6 -23 -1 -35 -6 -11 -12 -29 -12 -41 -1 -11 -7
-19 -14 -18 -7 2 -12 -8 -12 -25 -1 -31 -43 -88 -58 -78 -6 3 -12 1 -14 -4 -2
-6 -12 -12 -22 -14 -10 -1 -24 -13 -32 -27 -7 -13 -13 -18 -14 -10 0 9 -9 12
-30 9 -16 -2 -31 -1 -32 3 -2 4 -20 -1 -40 -11 -21 -10 -38 -14 -38 -9 0 5 -5
9 -11 9 -7 0 -18 8 -25 18 -12 15 -14 14 -20 -15 -6 -31 -33 -55 -35 -30 0 7
-4 2 -9 -10 -5 -13 -14 -23 -20 -23 -5 0 -10 -7 -10 -15 0 -10 -6 -12 -17 -8
-16 6 -16 5 -5 -10 8 -9 32 -17 55 -19 24 -2 42 -9 45 -17 4 -11 -2 -13 -27
-8 -23 5 -33 3 -37 -8 -4 -10 -11 -12 -25 -5 -10 6 -28 14 -39 20 -15 8 -22 5
-35 -12 -8 -13 -15 -17 -15 -11 0 7 -6 10 -14 7 -8 -3 -17 -1 -21 5 -10 17
-25 13 -25 -7 0 -10 -7 -27 -15 -38 -12 -16 -16 -17 -24 -5 -8 13 -12 13 -27
0 -16 -13 -17 -12 -12 9 4 12 2 22 -3 22 -5 0 -9 -10 -9 -22 0 -34 -11 -68
-21 -68 -5 0 -9 7 -9 15 0 27 -18 16 -40 -23 -19 -34 -50 -53 -50 -30 0 4 -9
8 -19 8 -13 0 -21 -9 -26 -30 -4 -16 -11 -30 -16 -30 -5 0 -9 -12 -9 -26 0
-36 -24 -56 -71 -58 -22 -1 -43 -6 -47 -12 -12 -15 -32 -15 -26 1 4 10 0 15
-14 15 -11 0 -23 6 -25 13 -9 22 -25 -12 -21 -46 7 -58 -36 -115 -44 -59 -2
15 2 22 12 22 19 0 21 17 4 22 -8 3 -7 11 5 28 9 14 17 33 17 43 0 10 5 15 11
12 6 -4 9 -1 8 6 -2 8 0 27 4 42 6 23 13 28 35 27 45 -3 50 -1 56 24 3 13 22
39 42 58 20 18 45 41 55 51 11 9 24 17 29 17 19 0 93 60 111 90 14 22 16 36 9
52 -5 13 -9 17 -9 11 -1 -7 -8 -13 -17 -13 -11 0 -14 5 -9 18 4 9 13 38 20 63
7 26 22 56 34 68 11 11 21 28 21 36 0 8 7 15 15 15 8 0 15 -7 15 -16 0 -8 -4
-12 -10 -9 -16 10 -12 -11 5 -25 13 -11 15 -6 15 32 0 24 4 48 9 53 5 6 11 23
13 40 3 33 -14 40 -46 19 -10 -7 -24 -10 -31 -8 -16 6 -55 -25 -55 -44 0 -7
-4 -10 -10 -7 -5 3 -10 1 -10 -6 0 -8 -4 -8 -15 1 -20 16 -19 1 0 -20 9 -10
20 -32 25 -50 l9 -32 -22 18 c-12 11 -33 30 -46 44 -13 14 -20 19 -16 11 6
-11 2 -13 -18 -7 -16 4 -27 2 -29 -6 -3 -8 -17 0 -36 20 -18 18 -36 30 -41 27
-5 -3 -8 -36 -6 -73 2 -37 -1 -73 -7 -80 -6 -7 -8 -15 -4 -19 3 -3 6 -1 6 5 0
7 9 12 20 12 11 0 20 4 20 9 0 5 9 7 20 4 11 -3 20 0 20 6 0 6 5 11 10 11 6 0
10 -13 10 -30 0 -20 -5 -30 -15 -30 -9 0 -15 -9 -15 -24 0 -18 -6 -26 -22 -28
-17 -2 -22 -9 -21 -25 2 -20 0 -19 -30 10 -26 26 -32 28 -35 14 -2 -9 -9 -17
-16 -17 -6 0 -18 -9 -26 -20 -10 -14 -16 -16 -22 -8 -14 23 -21 -2 -8 -27 7
-14 11 -28 8 -31 -4 -3 -9 4 -13 15 -3 12 -11 19 -16 16 -5 -4 -9 -1 -9 4 0 6
-5 11 -11 11 -7 0 -9 -9 -6 -22 7 -27 -21 -52 -41 -36 -7 6 -16 8 -19 4 -4 -4
-3 -10 3 -14 6 -4 16 -16 22 -27 9 -17 6 -21 -18 -31 -17 -8 -34 -27 -46 -53
-19 -43 -34 -45 -34 -5 0 14 4 22 10 19 6 -4 10 5 10 20 0 20 -4 26 -15 21 -8
-3 -15 -1 -15 4 0 23 -29 -5 -36 -33 -4 -18 -9 -25 -11 -17 -3 8 -8 24 -13 35
-5 11 -10 31 -12 43 -3 23 -3 23 -23 5 -11 -10 -21 -23 -22 -29 -3 -15 -93
-109 -93 -98 0 5 9 23 19 40 11 18 16 37 11 44 -5 9 -9 9 -14 1 -4 -6 -16 -11
-26 -11 -22 0 -39 -22 -21 -28 15 -5 -25 -35 -52 -39 -18 -3 -18 -2 -1 14 10
10 12 19 6 21 -6 2 -8 10 -5 18 3 9 -6 4 -21 -10 -24 -21 -31 -23 -52 -14 -29
13 -30 29 -6 51 24 22 92 23 92 2 0 -19 14 -19 29 -1 10 12 8 19 -9 36 -12 12
-23 33 -25 46 -3 32 57 92 102 100 19 4 42 18 54 33 11 14 22 25 22 23 1 -2
10 0 20 4 11 4 16 13 12 24 -3 9 -1 30 5 46 14 35 -5 78 -29 69 -12 -5 -13 -3
-5 5 8 8 21 9 35 4 13 -4 34 -7 47 -5 12 1 22 -2 22 -8 0 -6 -4 -11 -10 -11
-5 0 -7 -7 -4 -15 4 -8 10 -15 14 -15 10 0 15 17 25 73 6 37 5 38 -15 27 -20
-11 -21 -10 -15 12 20 67 27 73 90 79 33 3 66 4 73 1 21 -7 13 -22 -20 -37
-25 -11 -28 -15 -13 -15 11 -1 30 -3 42 -4 18 -2 21 2 18 31 -1 20 4 38 13 45
13 11 15 9 10 -14 -4 -20 0 -28 14 -31 12 -4 18 0 18 11 0 13 2 14 9 4 12 -20
23 26 11 48 -12 22 20 51 43 39 10 -6 18 -5 22 1 3 5 -1 10 -11 10 -14 0 -14
3 -4 15 9 11 16 12 25 5 9 -8 15 -8 20 0 5 8 11 8 20 0 15 -13 18 -5 30 80 3
25 8 57 10 73 5 28 -11 37 -32 16 -8 -8 -13 -8 -18 1 -5 8 -10 8 -21 -1 -10
-8 -14 -8 -14 0 0 18 -31 13 -50 -9 l-18 -20 -5 20 c-4 17 -13 20 -55 20 -31
0 -52 -5 -55 -12 -4 -10 -6 -10 -6 0 -1 15 -35 16 -62 2 -13 -7 -19 -7 -19 0
0 13 -27 13 -35 -1z m225 -29 c0 -5 -4 -10 -10 -10 -5 0 -10 5 -10 10 0 6 5
10 10 10 6 0 10 -4 10 -10z m134 -5 c3 -8 1 -15 -4 -15 -6 0 -10 7 -10 15 0 8
2 15 4 15 2 0 6 -7 10 -15z m-217 -11 c-3 -3 -12 -4 -19 -1 -8 3 -5 6 6 6 11
1 17 -2 13 -5z m193 -39 c-7 -9 -15 -13 -17 -11 -7 7 7 26 19 26 6 0 6 -6 -2
-15z m-660 -290 c-10 -12 -9 -15 6 -15 16 0 16 -2 4 -10 -10 -6 -17 -5 -23 6
-9 16 -1 34 15 34 7 0 6 -6 -2 -15z m137 -37 c-3 -8 -6 -5 -6 6 -1 11 2 17 5
13 3 -3 4 -12 1 -19z m-153 -4 c3 -8 2 -12 -4 -9 -6 3 -10 10 -10 16 0 14 7
11 14 -7z m86 -34 c-8 -5 -22 -10 -30 -10 -13 0 -13 1 0 10 8 5 22 10 30 10
13 0 13 -1 0 -10z m-175 -11 c11 -17 -1 -21 -15 -4 -8 9 -8 15 -2 15 6 0 14
-5 17 -11z m315 -35 c0 -8 -4 -14 -8 -14 -5 0 -15 -18 -22 -40 -9 -26 -19 -40
-31 -40 -37 0 -28 54 17 95 27 25 44 25 44 -1z m-214 -52 c3 -18 -1 -34 -11
-42 -8 -7 -15 -19 -15 -26 0 -16 -9 -17 -29 -5 -12 8 -12 12 2 26 10 9 17 23
17 31 0 16 22 55 28 49 2 -1 6 -16 8 -33z m722 -89 c10 -17 -12 -52 -25 -39
-4 3 -1 12 5 18 7 7 12 16 12 22 0 6 -5 5 -12 -2 -7 -7 -21 -12 -31 -12 -16 0
-17 3 -7 15 17 20 47 19 58 -2z m49 -28 c-4 -8 -11 -15 -17 -15 -14 0 -13 27
3 33 16 6 21 1 14 -18z m-207 -26 c0 -10 -4 -19 -10 -19 -5 0 -10 12 -10 26 0
14 4 23 10 19 6 -3 10 -15 10 -26z m-808 -26 c22 -20 24 -43 2 -43 -8 0 -13
-4 -10 -9 8 -13 -4 -42 -15 -35 -5 3 -9 -2 -9 -10 0 -9 6 -16 14 -16 16 0 29
-27 20 -41 -4 -6 -10 -6 -18 0 -7 6 -16 8 -19 4 -4 -3 -7 -2 -7 4 0 14 -51 9
-77 -8 -13 -7 -23 -19 -23 -25 0 -7 -7 -14 -15 -18 -8 -3 -15 -1 -15 4 0 6 -4
10 -9 10 -5 0 -7 -9 -4 -20 4 -15 0 -20 -16 -20 -11 0 -21 6 -21 13 0 6 -11
24 -24 39 l-23 28 -11 -25 c-6 -14 -16 -25 -21 -25 -14 0 -23 50 -11 65 6 7 7
21 3 31 -7 18 -6 18 11 1 10 -9 22 -15 27 -12 5 4 6 -1 3 -9 -4 -11 0 -16 15
-16 16 0 21 -6 21 -24 0 -24 1 -24 27 -11 18 10 31 11 39 4 8 -7 15 -6 20 2 5
8 3 9 -5 4 -10 -6 -11 -3 -1 14 6 12 16 21 23 20 20 -3 47 12 47 27 0 8 11 19
24 24 14 5 30 19 36 31 8 15 9 19 1 15 -7 -5 -11 2 -11 18 0 30 7 32 32 9z
m-38 -38 c3 -8 1 -15 -4 -15 -6 0 -10 7 -10 15 0 8 2 15 4 15 2 0 6 -7 10 -15z
m240 0 c3 -8 1 -15 -4 -15 -6 0 -10 7 -10 15 0 8 2 15 4 15 2 0 6 -7 10 -15z
m1083 -30 c2 -17 1 -17 -3 -2 -3 11 -12 16 -20 13 -7 -3 -16 0 -20 5 -4 7 3 9
17 7 15 -2 25 -10 26 -23z m-1781 -39 c1 -17 -1 -23 -3 -13 -5 18 -22 24 -24
7 -1 -5 -2 -14 -3 -19 -2 -18 -15 -23 -41 -17 -22 6 -25 9 -15 22 10 12 16 12
28 2 13 -11 15 -10 9 5 -10 26 2 47 26 45 17 -2 22 -9 23 -32z m588 19 c-7
-16 -24 -21 -24 -6 0 8 7 13 27 20 1 1 0 -6 -3 -14z m362 -47 c-24 -33 -32 3
-9 38 17 27 18 28 21 6 2 -12 -4 -32 -12 -44z m324 21 c0 -5 -9 -4 -19 3 -11
7 -17 16 -14 20 5 10 33 -10 33 -23z m-740 -4 c0 -8 -7 -15 -15 -15 -16 0 -20
12 -8 23 11 12 23 8 23 -8z m505 -26 c4 -5 -1 -19 -10 -29 -13 -14 -20 -16
-29 -8 -10 9 -9 16 3 29 19 21 28 23 36 8z m111 -45 c-3 -7 -10 -14 -17 -14
-6 0 -8 7 -5 16 3 8 1 25 -5 37 -11 21 -11 21 11 -1 12 -13 19 -30 16 -38z
m152 38 c6 -18 -15 -14 -22 4 -4 10 -1 14 6 12 6 -2 14 -10 16 -16z m-665 -53
c-8 -41 -33 -67 -33 -34 0 9 -4 14 -9 10 -5 -3 -13 0 -17 6 -5 8 -13 4 -25
-12 -14 -19 -21 -21 -30 -12 -9 9 -5 17 17 37 16 14 33 26 37 26 4 0 18 9 29
20 30 27 42 12 31 -41z m307 1 c0 8 10 0 21 -18 23 -35 20 -65 -6 -56 -11 5
-14 2 -9 -12 5 -15 4 -16 -4 -4 -6 8 -8 18 -6 22 9 15 -7 48 -24 49 -11 0 -13
2 -4 6 10 4 10 8 2 19 -7 7 -8 19 -4 26 5 8 12 3 20 -17 7 -17 13 -23 14 -15z
m-80 -5 c0 -8 -4 -15 -10 -15 -5 0 -7 7 -4 15 4 8 8 15 10 15 2 0 4 -7 4 -15z
m684 1 c-3 -8 -12 -12 -20 -9 -21 8 -17 23 6 23 13 0 18 -5 14 -14z m-548 -33
c-11 -11 -17 4 -9 23 7 18 8 18 11 1 2 -10 1 -21 -2 -24z m-920 2 c-3 -8 0
-15 7 -15 6 0 1 -7 -11 -16 -34 -23 -47 -12 -22 19 24 30 35 35 26 12z m144
-22 c-11 -17 -11 -17 -6 0 3 10 6 24 7 30 0 9 2 9 5 0 3 -7 0 -20 -6 -30z
m686 -10 c-10 -10 -19 5 -10 18 6 11 8 11 12 0 2 -7 1 -15 -2 -18z m269 -5
c36 -24 39 -35 13 -52 -20 -12 -42 8 -52 47 -8 33 -5 33 39 5z m-605 -25 c0
-19 -27 -16 -34 4 -4 9 -1 20 6 24 13 8 28 -7 28 -28z m-575 17 c3 -5 1 -10
-4 -10 -6 0 -11 5 -11 10 0 6 2 10 4 10 3 0 8 -4 11 -10z m215 -15 c0 -8 -4
-15 -10 -15 -5 0 -10 7 -10 15 0 8 5 15 10 15 6 0 10 -7 10 -15z m853 -15 c17
0 27 -5 27 -15 0 -8 -7 -15 -16 -15 -11 0 -14 -5 -9 -17 4 -10 9 -43 12 -73
l5 -55 -30 32 c-22 23 -32 29 -41 20 -11 -11 -12 -4 -13 81 0 18 -5 35 -9 38
-5 3 -9 11 -9 19 0 12 4 12 28 -1 15 -7 39 -14 55 -14z m-1003 -5 c0 -8 -7
-15 -15 -15 -16 0 -20 12 -8 23 11 12 23 8 23 -8z m-160 -25 c0 -6 -12 -15
-26 -20 -37 -14 -40 -12 -14 10 25 22 40 26 40 10z m539 -43 c1 -10 -3 -15 -9
-12 -5 3 -10 21 -9 38 0 27 2 29 9 12 5 -11 9 -28 9 -38z m-459 16 c0 -7 -6
-13 -14 -13 -8 0 -16 6 -19 13 -3 8 3 13 14 13 11 0 19 -6 19 -13z m216 -89
c-9 -8 -16 -11 -16 -4 0 15 24 40 28 29 2 -5 -4 -16 -12 -25z m-306 -22 c0
-15 -2 -15 -10 -2 -13 20 -13 33 0 25 6 -3 10 -14 10 -23z m76 -19 c-3 -3 -1
-12 6 -20 14 -17 4 -28 -18 -19 -9 3 -14 12 -11 19 3 8 1 20 -3 27 -13 22 -1
32 17 15 8 -9 13 -19 9 -22z m2255 -20 c-9 -17 -10 -17 -17 1 -4 11 -2 21 7
27 18 11 24 -5 10 -28z m-2428 -1 c-4 -18 -8 -20 -19 -11 -19 15 -18 30 1 23
8 -4 15 -1 15 7 0 7 2 10 5 8 2 -3 2 -15 -2 -27z m363 -7 c3 -14 10 -22 15
-19 5 3 9 0 9 -5 0 -6 -5 -11 -10 -11 -7 0 -7 -6 -1 -18 11 -21 3 -102 -10
-102 -5 0 -9 -11 -9 -25 0 -14 -3 -25 -7 -26 -5 0 -29 -2 -54 -4 l-47 -2 10
31 c6 17 12 43 15 59 3 15 12 27 19 27 8 0 14 5 14 10 0 16 27 12 34 -5 3 -8
10 -15 16 -15 6 0 4 7 -4 16 -9 8 -16 25 -16 37 l0 22 -18 -21 c-11 -13 -26
-20 -44 -18 -16 2 -29 -3 -32 -12 -3 -8 -15 -14 -26 -14 -21 0 -21 1 -3 30 9
17 21 30 25 30 4 0 8 6 8 14 0 8 7 16 15 20 9 3 15 0 15 -9 0 -18 20 -20 21
-2 0 6 4 3 9 -8 8 -18 10 -17 21 13 16 38 26 41 35 7z m694 -47 c0 -17 -4 -15
-25 10 -14 17 -25 33 -25 36 0 4 11 -1 25 -10 14 -9 25 -25 25 -36z m-536 27
c3 -8 1 -15 -3 -15 -5 0 -11 7 -15 15 -3 8 -1 15 3 15 5 0 11 -7 15 -15z m452
-6 c7 -12 -15 -31 -28 -23 -9 6 1 34 12 34 5 0 12 -5 16 -11z m-506 -22 c0 -7
-11 -17 -25 -23 -22 -11 -24 -10 -22 10 3 32 47 44 47 13z m2100 7 c0 -2 -9
-4 -21 -4 -11 0 -18 4 -14 10 5 8 35 3 35 -6z m-371 -25 c-19 -12 -24 -2 -8
17 9 11 14 13 17 4 3 -7 -2 -16 -9 -21z m0 -59 c13 0 14 -2 2 -9 -21 -13 -56
22 -46 46 7 16 9 15 18 -9 6 -16 18 -28 26 -28z m-2052 2 c8 2 19 -7 24 -20 7
-17 4 -25 -11 -35 -11 -6 -20 -19 -21 -27 0 -8 -6 0 -13 19 -11 31 -12 52 -6
86 1 6 4 2 7 -8 2 -10 11 -16 20 -15z m273 4 c0 -9 7 -12 20 -9 28 7 25 -11
-5 -31 -31 -21 -49 -13 -35 15 8 13 7 19 0 19 -6 0 -8 5 -5 10 9 15 25 12 25
-4z m1843 -26 c-3 -9 3 -22 11 -29 9 -8 16 -21 16 -30 -1 -13 -3 -13 -16 4 -8
11 -20 19 -25 18 -11 -4 -23 42 -15 62 5 13 8 14 19 3 8 -7 12 -20 10 -28z
m-2579 6 c-9 -23 -33 -28 -27 -5 3 10 11 19 19 19 7 0 11 -6 8 -14z m839 -38
c7 -5 0 -8 -17 -8 -22 0 -27 4 -22 16 3 9 6 23 7 32 0 11 4 8 10 -8 6 -13 15
-28 22 -32z m1607 13 c0 -6 -4 -13 -10 -16 -5 -3 -10 1 -10 9 0 9 5 16 10 16
6 0 10 -4 10 -9z m115 -41 c14 -27 14 -29 -8 -36 -12 -4 -23 -6 -25 -5 -2 1
-16 -10 -31 -26 -14 -15 -34 -27 -44 -25 -10 2 -17 -3 -17 -12 0 -9 -5 -16
-10 -16 -6 0 -22 -12 -35 -26 -23 -25 -29 -25 -26 1 0 6 -5 2 -12 -8 -23 -35
-79 -87 -93 -87 -8 0 -15 8 -15 18 -1 17 -1 23 9 56 4 14 2 17 -8 11 -9 -5
-11 -4 -6 3 4 7 12 12 17 12 5 0 22 11 37 25 15 14 32 25 39 25 7 0 13 4 13
10 0 5 11 12 25 16 14 3 25 10 25 15 0 9 57 43 75 44 6 0 14 -4 18 -10 5 -6 7
0 4 13 -5 20 -2 23 14 19 12 -3 19 0 19 10 0 20 17 7 35 -27z m-1784 -3 c-8
-8 -11 -7 -11 4 0 20 13 34 18 19 3 -7 -1 -17 -7 -23z m1529 -22 c0 -8 -4 -15
-10 -15 -5 0 -7 7 -4 15 4 8 8 15 10 15 2 0 4 -7 4 -15z m-1863 -27 c-3 -8 -6
-5 -6 6 -1 11 2 17 5 13 3 -3 4 -12 1 -19z m191 -3 c-3 -3 -9 2 -12 12 -6 14
-5 15 5 6 7 -7 10 -15 7 -18z m130 8 c6 -19 -25 -16 -32 3 -4 11 -1 14 11 12
9 -2 18 -9 21 -15z m775 -20 c-7 -2 -13 -14 -13 -24 0 -11 -5 -17 -10 -14 -13
8 6 45 23 44 9 0 9 -2 0 -6z m-1108 -13 c3 -5 1 -10 -4 -10 -6 0 -11 5 -11 10
0 6 2 10 4 10 3 0 8 -4 11 -10z m-670 -71 c4 -6 13 -8 21 -5 26 10 14 -20 -15
-37 -37 -22 -40 -22 -33 5 5 22 5 22 -21 5 -32 -20 -37 -21 -37 -4 0 7 15 21
33 30 39 19 44 20 52 6z m1109 -2 c10 10 76 -28 76 -44 0 -14 -2 -15 -17 -1
-28 24 -51 28 -57 12 -5 -14 -8 -14 -27 0 -12 8 -27 12 -34 10 -7 -3 -16 -1
-20 5 -12 20 5 29 39 21 19 -4 37 -5 40 -3z m1328 -10 c11 -17 10 -29 -1 -22
-5 3 -13 -4 -16 -16 -7 -20 -7 -20 -21 6 -8 15 -14 30 -14 34 0 12 44 10 52
-2z m-808 -78 c-13 -38 -14 -54 -6 -57 7 -2 12 -14 12 -28 0 -17 -4 -22 -15
-18 -8 4 -15 2 -15 -2 0 -14 -46 -64 -58 -64 -21 0 -18 36 5 61 13 14 25 37
25 50 1 13 6 29 11 36 10 14 0 53 -14 53 -5 0 -9 -4 -9 -10 0 -5 -8 -10 -17
-10 -9 0 -26 -8 -37 -17 -16 -14 -18 -14 -8 -2 15 19 4 33 -15 18 -10 -9 -13
-5 -13 20 0 31 0 31 55 31 32 0 55 -4 55 -11 0 -6 10 -3 22 5 34 24 41 5 22
-55z m295 56 c16 10 2 -45 -16 -64 -12 -12 -12 -16 0 -29 9 -8 26 -14 40 -14
19 0 23 -5 19 -20 -3 -13 -10 -17 -21 -13 -9 4 -22 10 -30 13 -10 4 -12 1 -6
-7 4 -8 2 -17 -6 -22 -10 -6 -6 -9 14 -9 22 0 25 -3 16 -13 -7 -7 -23 -14 -35
-15 -19 -1 -24 5 -31 41 -8 39 -11 42 -39 39 -16 -2 -33 -8 -38 -13 -6 -5 -14
-9 -18 -9 -18 0 -6 20 42 70 28 29 50 56 50 60 0 12 34 17 41 7 4 -5 12 -6 18
-2z m-149 -4 c0 -5 -7 -11 -14 -14 -10 -4 -13 -1 -9 9 6 15 23 19 23 5z m-643
-33 c-3 -8 -6 -5 -6 6 -1 11 2 17 5 13 3 -3 4 -12 1 -19z m297 -13 c-19 -46
-18 -55 6 -55 21 0 27 -15 10 -25 -5 -3 -7 -12 -3 -21 3 -8 -1 -22 -10 -32 -8
-9 -18 -27 -21 -39 -4 -13 -11 -23 -16 -23 -5 0 -27 -20 -50 -44 -23 -24 -52
-46 -66 -49 -22 -4 -24 -1 -24 37 0 39 3 42 50 69 57 32 64 52 20 62 -16 4
-30 11 -30 16 0 5 -7 9 -15 9 -8 0 -15 -7 -15 -15 0 -17 -9 -19 -29 -6 -9 6
-10 10 -2 16 8 5 6 12 -9 25 l-21 18 26 31 c16 18 43 35 67 41 46 13 109 10
120 -5 4 -6 8 -2 8 8 0 9 4 17 9 17 6 0 3 -16 -5 -35z m-327 3 c-3 -8 -6 -5
-6 6 -1 11 2 17 5 13 3 -3 4 -12 1 -19z m-551 -18 c0 -11 -6 -22 -13 -24 -16
-7 -17 16 -1 32 7 7 12 12 13 12 0 0 1 -9 1 -20z m-61 -30 c0 -22 -39 -19 -43
3 -3 15 1 18 20 15 12 -2 23 -10 23 -18z m2295 -5 c0 -8 -4 -14 -9 -12 -5 1
-18 -9 -30 -22 -25 -29 -28 -10 -3 24 19 27 42 33 42 10z m-2210 -19 c0 -7
-11 -16 -25 -18 -27 -6 -32 1 -13 20 16 16 38 15 38 -2z m1766 -4 c11 11 31
-15 26 -34 -2 -10 -8 -15 -13 -12 -5 3 -19 -11 -30 -31 -13 -22 -25 -32 -29
-25 -5 7 -15 8 -32 1 -14 -5 -28 -7 -31 -4 -4 3 -13 -2 -22 -11 -18 -17 -98
-19 -92 -2 2 5 24 20 50 34 26 13 52 33 58 43 5 11 20 19 33 19 13 0 31 9 41
20 14 15 20 17 26 8 4 -7 11 -9 15 -6z m91 -4 c-3 -8 -6 -5 -6 6 -1 11 2 17 5
13 3 -3 4 -12 1 -19z m-2636 -31 c-16 -16 -26 0 -10 19 9 11 15 12 17 4 2 -6
-1 -17 -7 -23z m616 1 c-3 -7 -5 -2 -5 12 0 14 2 19 5 13 2 -7 2 -19 0 -25z
m354 0 c10 -13 18 -27 19 -31 0 -11 -43 -26 -55 -19 -18 12 -34 10 -29 -2 3
-7 -2 -13 -10 -13 -8 0 -13 4 -10 9 3 5 -2 20 -11 34 -9 14 -14 29 -10 32 3 4
9 1 13 -5 4 -7 22 -14 39 -17 27 -5 30 -4 26 14 -7 26 4 25 28 -2z m-941 -15
c-8 -3 -18 -10 -21 -15 -4 -6 -15 -8 -25 -6 -17 4 -16 6 6 16 14 6 32 11 40
11 13 -1 13 -1 0 -6z m67 -6 c-5 -17 -37 -21 -37 -5 0 8 9 14 21 15 12 1 19
-3 16 -10z m570 -9 c-3 -8 -6 -5 -6 6 -1 11 2 17 5 13 3 -3 4 -12 1 -19z m473
6 c0 -8 4 -13 9 -10 5 3 12 -2 16 -12 4 -11 -2 -24 -20 -39 -28 -24 -51 -31
-39 -11 5 7 2 9 -8 6 -8 -4 -21 -3 -28 2 -9 6 -7 13 9 29 11 11 21 28 21 36 0
8 9 15 20 15 11 0 20 -7 20 -16z m1790 1 c0 -8 -5 -15 -11 -15 -6 0 -8 -8 -5
-17 3 -10 2 -23 -2 -28 -14 -21 -93 -77 -99 -71 -4 3 -1 6 5 6 7 0 12 7 12 16
0 8 -4 12 -10 9 -5 -3 -10 -1 -10 5 0 15 71 80 88 80 6 0 12 7 12 15 0 8 5 15
10 15 6 0 10 -7 10 -15z m30 -45 c0 -5 -5 -10 -11 -10 -5 0 -7 5 -4 10 3 6 8
10 11 10 2 0 4 -4 4 -10z m-1990 -7 c0 -5 -4 -14 -9 -21 -6 -10 -10 -9 -14 7
-3 14 0 21 9 21 8 0 14 -3 14 -7z m84 -9 c3 -8 -1 -22 -9 -30 -8 -9 -15 -20
-15 -25 0 -6 -5 -7 -10 -4 -6 4 -8 11 -5 16 6 9 -8 13 -32 10 -18 -2 -16 9 4
31 20 22 59 24 67 2z m387 -17 c-10 -9 -11 -8 -5 6 3 10 9 15 12 12 3 -3 0
-11 -7 -18z m-621 -56 c0 -17 -18 -21 -24 -6 -3 9 0 15 9 15 8 0 15 -4 15 -9z
m1534 -23 c-5 -7 -7 -23 -5 -36 2 -20 -1 -23 -21 -20 -26 3 -40 48 -15 48 8 0
20 7 27 15 15 18 26 12 14 -7z m276 -38 c8 -16 8 -18 -4 -14 -8 3 -23 -5 -35
-17 -11 -12 -24 -19 -28 -15 -5 5 42 62 54 65 1 1 7 -8 13 -19z m-325 -21 c11
-17 2 -18 -19 -3 -17 12 -17 14 -4 14 9 0 20 -5 23 -11z m233 -39 c-7 -11 -18
-20 -25 -20 -7 0 -13 -4 -13 -9 0 -5 -10 -13 -22 -17 -13 -3 -31 -13 -40 -21
-9 -8 -22 -13 -29 -11 -19 6 42 58 68 58 13 0 23 5 23 10 0 8 26 24 48 29 1 1
-3 -8 -10 -19z m-2252 -37 c-10 -10 -19 5 -10 18 6 11 8 11 12 0 2 -7 1 -15
-2 -18z m-161 -3 c3 -5 1 -10 -4 -10 -6 0 -11 5 -11 10 0 6 2 10 4 10 3 0 8
-4 11 -10z m2172 -102 c-3 -8 -6 -5 -6 6 -1 11 2 17 5 13 3 -3 4 -12 1 -19z
m-14 -25 c-22 -8 -15 -32 8 -26 13 4 18 11 15 22 -5 14 -4 14 7 -1 7 -9 20
-16 28 -16 37 2 59 -3 59 -14 0 -7 -11 -14 -25 -14 -14 -1 -25 2 -25 8 0 5
-13 0 -30 -12 -16 -12 -30 -18 -30 -14 0 5 -5 3 -12 -4 -7 -7 -25 -12 -40 -12
-15 0 -28 -4 -28 -10 0 -5 7 -7 15 -4 8 4 15 1 15 -5 0 -15 -47 -14 -57 2 -8
12 -53 19 -53 7 0 -4 -16 -7 -35 -8 -31 -1 -35 1 -35 25 0 14 3 23 7 20 3 -4
15 0 25 10 11 9 18 11 18 5 0 -16 20 -15 39 3 9 8 34 16 56 18 22 3 41 10 43
16 2 6 13 11 25 10 12 0 16 -3 10 -6z m157 3 c0 -3 -4 -8 -10 -11 -5 -3 -10
-1 -10 4 0 6 5 11 10 11 6 0 10 -2 10 -4z m-3050 -36 c-6 -11 -15 -20 -20 -20
-16 0 -11 18 8 29 24 14 24 14 12 -9z m2580 -15 c0 -8 -7 -15 -15 -15 -16 0
-20 12 -8 23 11 12 23 8 23 -8z m-2680 -14 c0 -5 -7 -12 -16 -15 -24 -9 -28
-7 -14 9 14 17 30 20 30 6z m1965 -20 c-3 -3 -10 1 -15 9 -8 13 -10 13 -10 1
0 -8 -3 -12 -6 -8 -3 3 -3 11 1 17 5 8 11 8 21 -1 8 -6 12 -14 9 -18z m1169
14 c-4 -8 -1 -15 5 -15 7 0 7 -7 0 -24 -9 -19 -14 -22 -24 -13 -14 13 -9 31 6
21 6 -3 7 4 3 20 -4 16 -2 26 5 26 6 0 8 -7 5 -15z m-634 -20 c8 -20 16 -25
44 -25 27 0 34 -3 30 -15 -4 -8 -14 -15 -24 -15 -11 0 -22 -4 -25 -10 -8 -13
-66 -13 -99 0 -16 6 -27 6 -31 0 -3 -5 -32 -9 -63 -9 -35 1 -76 -7 -108 -19
l-51 -21 4 36 c2 23 -1 39 -9 44 -19 12 19 38 56 39 21 0 27 -4 22 -15 -3 -8
-1 -15 4 -15 6 0 10 -7 10 -15 0 -10 10 -15 31 -15 28 0 31 3 27 25 -4 19 -2
23 7 15 6 -5 15 -7 19 -3 4 4 4 -1 0 -12 -6 -16 -5 -18 7 -7 7 6 23 12 35 12
12 0 24 7 28 15 3 8 14 15 25 15 11 0 23 5 26 10 11 17 25 11 35 -15z m-430 6
c0 -5 -9 -7 -20 -4 -11 3 -20 7 -20 9 0 2 9 4 20 4 11 0 20 -4 20 -9z m-2090
-36 c0 -13 -29 -29 -37 -21 -3 2 -2 14 2 25 7 21 35 18 35 -4z m1075 5 c3 -5
1 -10 -4 -10 -6 0 -11 5 -11 10 0 6 2 10 4 10 3 0 8 -4 11 -10z m1048 -36 c-8
-20 -18 -8 -18 23 -1 22 0 23 11 8 7 -9 10 -23 7 -31z m624 40 c-3 -3 -12 -4
-19 -1 -8 3 -5 6 6 6 11 1 17 -2 13 -5z m-2224 -32 c-6 -23 -23 -21 -23 4 0 8
5 12 10 9 6 -3 10 -1 10 6 0 7 2 10 5 8 2 -3 2 -15 -2 -27z m2798 5 c-10 -9
-11 -8 -5 6 3 10 9 15 12 12 3 -3 0 -11 -7 -18z m-3401 -22 c0 -8 -4 -15 -10
-15 -5 0 -7 7 -4 15 4 8 8 15 10 15 2 0 4 -7 4 -15z m2727 1 c-2 -6 -14 -13
-27 -14 -20 -3 -22 -1 -12 10 14 17 44 20 39 4z m-467 -40 c0 -12 -9 -27 -21
-34 -18 -11 -20 -11 -17 5 2 10 -2 17 -9 16 -7 -2 -13 1 -13 6 0 5 -10 7 -22
5 -13 -2 -17 -1 -8 2 8 4 20 13 27 19 19 20 63 6 63 -19z m-723 -12 c2 -6 -3
-11 -12 -11 -8 0 -15 7 -15 15 0 15 22 12 27 -4z m-606 -53 c-6 -11 -9 -26 -6
-33 3 -7 -2 -22 -10 -33 -15 -19 -16 -17 -11 24 2 24 10 47 17 51 6 5 9 15 6
23 -3 8 -3 18 1 22 12 12 14 -33 3 -54z m-521 39 c0 -5 -5 -10 -11 -10 -5 0
-7 5 -4 10 3 6 8 10 11 10 2 0 4 -4 4 -10z m2635 -15 c16 -7 11 -10 -27 -15
-27 -3 -53 -11 -60 -18 -15 -15 -31 -16 -26 -1 5 15 82 58 88 49 3 -3 14 -10
25 -15z m-1555 -5 c-6 -11 -8 -25 -5 -30 3 -6 2 -10 -4 -10 -15 0 -19 23 -7
43 15 24 29 22 16 -3z m714 5 c-4 -8 -10 -15 -15 -15 -4 0 -6 7 -3 15 4 8 10
15 15 15 4 0 6 -7 3 -15z m-2070 -30 c-4 -8 -10 -15 -15 -15 -5 0 -9 7 -9 15
0 8 7 15 15 15 9 0 12 -6 9 -15z m490 -16 c-6 -11 -24 -2 -24 11 0 5 7 7 15 4
8 -4 12 -10 9 -15z m2293 5 c-3 -3 -12 -4 -19 -1 -8 3 -5 6 6 6 11 1 17 -2 13
-5z m-2107 -19 c0 -8 -4 -15 -10 -15 -5 0 -10 7 -10 15 0 8 5 15 10 15 6 0 10
-7 10 -15z m-710 -5 c0 -5 -4 -10 -10 -10 -5 0 -10 5 -10 10 0 6 5 10 10 10 6
0 10 -4 10 -10z m73 -21 c-4 -15 -8 -17 -13 -8 -10 15 -1 41 10 34 5 -3 6 -14
3 -26z m1120 12 c17 -3 5 -31 -13 -31 -11 0 -23 -7 -26 -15 -5 -11 -10 -13
-19 -5 -6 5 -14 7 -17 4 -3 -2 -8 2 -11 10 -13 32 22 47 86 37z m-1233 -16 c0
-8 -7 -15 -16 -15 -14 0 -14 3 -4 15 7 8 14 15 16 15 2 0 4 -7 4 -15z m512
-17 c-8 -8 -9 -4 -5 13 4 13 8 18 11 10 2 -7 -1 -18 -6 -23z m798 16 c0 -8 -4
-12 -10 -9 -5 3 -10 10 -10 16 0 5 5 9 10 9 6 0 10 -7 10 -16z m681 -7 c-10
-9 -11 -8 -5 6 3 10 9 15 12 12 3 -3 0 -11 -7 -18z m-1361 -11 c0 -8 -7 -16
-15 -20 -17 -6 -18 -4 -9 18 8 20 24 21 24 2z m3244 -18 c8 -5 7 -8 -1 -8 -7
0 -13 -4 -13 -10 0 -5 5 -9 11 -7 22 4 20 -22 -3 -34 -13 -7 -27 -17 -31 -23
-5 -6 -6 -2 -2 9 4 11 10 40 13 65 3 25 7 38 10 30 3 -8 10 -18 16 -22z
m-1790 -28 l7 -25 -15 25 c-9 14 -15 32 -15 40 0 13 1 13 8 0 5 -8 12 -26 15
-40z m-1918 18 c-12 -40 -17 -50 -22 -46 -5 6 13 58 20 58 3 0 4 -6 2 -12z
m1861 -10 c-3 -8 -6 -5 -6 6 -1 11 2 17 5 13 3 -3 4 -12 1 -19z m-1437 -19 c0
-7 11 -8 31 -4 l31 7 -18 -26 c-16 -26 -47 -48 -71 -52 -18 -3 -53 44 -46 62
6 16 19 18 28 4 9 -15 25 -12 25 5 0 8 5 15 10 15 6 0 10 -5 10 -11z m3026
-16 c-10 -10 -19 5 -10 18 6 11 8 11 12 0 2 -7 1 -15 -2 -18z m-3107 -30 c1
-14 -32 -10 -37 5 -2 7 1 12 7 12 6 0 11 8 12 18 0 14 2 14 9 -3 5 -11 9 -25
9 -32z m-635 12 c-4 -8 -8 -15 -10 -15 -2 0 -4 7 -4 15 0 8 4 15 10 15 5 0 7
-7 4 -15z m3941 -15 c-3 -5 -12 -10 -18 -10 -7 0 -6 4 3 10 19 12 23 12 15 0z
m-2868 -65 c-9 -8 -18 -33 -22 -55 -6 -36 -25 -67 -25 -41 0 6 -16 13 -35 17
-38 7 -45 18 -17 28 30 11 69 35 82 51 7 8 17 15 22 15 5 0 3 -7 -5 -15z
m-620 -14 c0 -11 -7 -17 -14 -14 -9 4 -9 8 0 19 16 17 16 17 14 -5z m1303 4
c0 -8 -9 -15 -20 -15 -11 0 -20 -3 -20 -7 0 -5 -23 -21 -50 -36 -49 -28 -50
-29 -50 -76 0 -57 -3 -61 -38 -52 -20 6 -28 16 -33 41 -6 28 -3 39 19 65 37
43 92 77 113 72 10 -3 23 1 30 9 15 19 49 18 49 -1z m1595 -15 c-3 -5 -10 -10
-16 -10 -5 0 -9 5 -9 10 0 6 7 10 16 10 8 0 12 -4 9 -10z m714 -56 c-14 -17
-22 -12 -24 17 -1 13 3 18 12 15 8 -3 11 -1 8 4 -3 6 -3 16 2 23 5 8 9 3 11
-16 2 -16 -2 -35 -9 -43z m-4079 46 c0 -5 -2 -10 -4 -10 -3 0 -8 5 -11 10 -3
6 -1 10 4 10 6 0 11 -4 11 -10z m630 -32 c0 7 5 10 11 7 6 -4 8 -13 5 -21 -3
-8 -1 -14 4 -14 5 0 12 9 15 20 12 39 28 22 21 -22 -12 -68 -12 -83 -1 -82 6
1 26 5 45 9 l35 7 -39 -36 c-21 -20 -42 -36 -47 -36 -14 0 -11 28 4 33 7 3 5
6 -5 6 -10 1 -18 8 -18 18 0 15 -1 15 -18 0 -15 -14 -81 -23 -130 -18 -23 2
-2 21 23 21 36 0 54 25 52 73 -2 52 13 74 30 43 7 -11 12 -15 13 -8z m206 -26
c-15 -15 -16 -14 -16 9 0 33 11 44 23 23 6 -11 4 -21 -7 -32z m674 -2 c0 -13
-1 -13 -10 0 -5 8 -10 22 -10 30 0 13 1 13 10 0 5 -8 10 -22 10 -30z m-757 5
c-3 -9 -8 -14 -10 -11 -3 3 -2 9 2 15 9 16 15 13 8 -4z m171 -17 c-3 -13 -13
-27 -20 -31 -9 -5 -12 -17 -8 -33 4 -16 2 -24 -7 -24 -10 0 -10 -3 -1 -12 14
-14 16 -48 3 -48 -20 0 -41 31 -32 48 5 9 14 35 21 57 7 22 20 45 29 52 22 17
23 16 15 -9z m210 6 c3 -8 2 -12 -4 -9 -6 3 -10 10 -10 16 0 14 7 11 14 -7z
m25 -48 c-12 -14 -27 -26 -33 -26 -5 0 3 13 19 30 34 36 46 33 14 -4z m342 10
c-7 -8 -11 -19 -8 -23 3 -4 -2 -15 -11 -23 -14 -13 -15 -12 -9 3 3 9 2 17 -3
17 -5 0 -7 7 -4 15 4 8 12 15 20 15 8 0 14 5 14 12 0 6 3 8 6 5 4 -4 1 -13 -5
-21z m-1491 3 c0 -5 4 -7 10 -4 5 3 7 0 4 -9 -8 -21 -44 -16 -44 6 0 10 7 18
15 18 8 0 15 -5 15 -11z m840 -22 c0 -5 -4 -5 -10 -2 -5 3 -10 14 -10 23 0 15
2 15 10 2 5 -8 10 -19 10 -23z m110 7 c0 -10 -6 -14 -14 -11 -7 3 -19 0 -25
-6 -8 -8 -11 -7 -11 4 0 21 9 29 32 29 10 0 18 -7 18 -16z m582 -16 c-9 -9
-12 -7 -12 12 0 19 3 21 12 12 9 -9 9 -15 0 -24z m-2088 -26 c3 -5 -1 -9 -9
-9 -8 0 -12 4 -9 9 3 4 7 8 9 8 2 0 6 -4 9 -8z m316 -17 c0 -19 15 -19 44 0
21 14 24 14 36 0 11 -13 2 -21 -15 -12 -2 1 -15 -13 -28 -31 -21 -28 -26 -30
-37 -17 -9 11 -16 12 -26 4 -9 -7 -19 -7 -33 1 -27 14 -26 20 7 47 32 26 52
29 52 8z m-326 -49 c-6 -27 -18 -33 -29 -16 -5 9 25 53 32 46 2 -2 1 -15 -3
-30z m1138 2 c-8 -8 -9 -4 -5 13 4 13 8 18 11 10 2 -7 -1 -18 -6 -23z m38 17
c0 -8 -4 -15 -10 -15 -5 0 -10 7 -10 15 0 8 5 15 10 15 6 0 10 -7 10 -15z
m948 1 c-7 -8 -15 -12 -17 -11 -5 6 10 25 20 25 5 0 4 -6 -3 -14z m1164 -16
c4 -27 3 -29 -21 -23 -14 3 -30 9 -35 13 -10 10 2 32 14 25 5 -3 11 -1 15 5
11 18 23 10 27 -20z m-1857 -20 c3 -6 -3 -10 -14 -10 -12 0 -21 2 -21 4 0 2
-3 12 -7 21 -5 15 -3 16 15 6 11 -6 24 -16 27 -21z m-115 12 c0 -4 -5 -13 -12
-20 -6 -6 -11 -25 -10 -42 1 -32 -33 -100 -50 -100 -5 0 -7 4 -4 9 3 5 -1 25
-9 44 -12 30 -19 35 -40 31 -18 -3 -25 0 -25 11 0 8 8 15 18 15 9 0 26 7 36
15 11 8 27 15 37 15 9 0 22 7 29 15 13 16 30 20 30 7z m1894 -21 c-2 -2 2 -11
8 -18 10 -12 8 -14 -8 -11 -10 1 -21 6 -24 9 -3 4 -12 0 -20 -9 -13 -14 -12
-15 4 -9 14 6 17 4 12 -8 -3 -9 -2 -13 3 -10 5 3 12 1 16 -5 3 -5 2 -10 -4
-10 -5 0 -12 -9 -16 -20 -3 -11 -11 -19 -17 -17 -5 1 -14 -8 -19 -21 -4 -12
-5 -22 0 -22 14 0 21 -27 8 -27 -7 0 -20 -4 -31 -8 -16 -7 -18 -3 -15 36 4 41
2 44 -18 42 -26 -3 -31 15 -7 24 8 3 13 12 10 19 -5 13 63 74 83 74 6 0 11 5
11 10 0 6 6 5 14 -2 8 -7 12 -15 10 -17z m406 25 c0 -3 -4 -8 -10 -11 -5 -3
-10 -1 -10 4 0 6 5 11 10 11 6 0 10 -2 10 -4z m-3320 -36 c0 -5 -2 -10 -4 -10
-3 0 -8 5 -11 10 -3 6 -1 10 4 10 6 0 11 -4 11 -10z m2708 -19 c-8 -12 -18
-18 -21 -14 -4 3 1 14 11 23 22 23 28 17 10 -9z m612 8 c0 -6 -4 -7 -10 -4 -5
3 -10 11 -10 16 0 6 5 7 10 4 6 -3 10 -11 10 -16z m-2700 -20 c0 -5 -7 -9 -15
-9 -15 0 -20 12 -9 23 8 8 24 -1 24 -14z m-1180 -4 c0 -8 -4 -15 -10 -15 -5 0
-7 7 -4 15 4 8 8 15 10 15 2 0 4 -7 4 -15z m577 -7 c-3 -8 -6 -5 -6 6 -1 11 2
17 5 13 3 -3 4 -12 1 -19z m643 12 c0 -5 -9 -14 -20 -20 -22 -12 -23 -10 -14
14 7 17 34 22 34 6z m429 -61 c-19 -12 -24 -2 -8 17 9 11 14 13 17 4 3 -7 -2
-16 -9 -21z m-1697 -11 c-9 -9 -12 -7 -12 12 0 19 3 21 12 12 9 -9 9 -15 0
-24z m536 5 c-1 -10 2 -36 5 -58 4 -22 4 -32 1 -22 -3 10 -15 17 -30 17 -28 0
-28 2 -12 47 13 35 37 45 36 16z m1590 -18 c-3 -3 -9 2 -12 12 -6 14 -5 15 5
6 7 -7 10 -15 7 -18z m1572 -24 c0 -21 -29 -36 -43 -22 -5 5 0 15 14 25 29 20
29 20 29 -3z m-1350 -12 c0 -6 -4 -7 -10 -4 -5 3 -10 11 -10 16 0 6 5 7 10 4
6 -3 10 -11 10 -16z m-2302 2 c10 -6 10 -10 -3 -21 -8 -7 -15 -10 -15 -7 0 3
-3 12 -6 21 -7 17 3 20 24 7z m-58 -52 c0 -5 -7 -9 -15 -9 -8 0 -15 7 -15 15
0 9 6 12 15 9 8 -4 15 -10 15 -15z m527 -1 c-3 -8 -6 -5 -6 6 -1 11 2 17 5 13
3 -3 4 -12 1 -19z m2373 4 c0 -5 -7 -9 -15 -9 -8 0 -15 4 -15 9 0 4 7 8 15 8
8 0 15 -4 15 -8z m310 -2 c0 -5 -2 -10 -4 -10 -3 0 -8 5 -11 10 -3 6 -1 10 4
10 6 0 11 -4 11 -10z"/>
<path d="M9340 2405 c0 -8 5 -15 10 -15 6 0 10 7 10 15 0 8 -4 15 -10 15 -5 0
-10 -7 -10 -15z"/>
<path d="M9515 2410 c3 -5 8 -10 11 -10 2 0 4 5 4 10 0 6 -5 10 -11 10 -5 0
-7 -4 -4 -10z"/>
<path d="M9305 1410 c-3 -6 1 -7 9 -4 18 7 21 14 7 14 -6 0 -13 -4 -16 -10z"/>
<path d="M10700 3264 c0 -8 4 -13 9 -10 4 3 19 -3 31 -14 l22 -19 -27 2 c-18
1 -30 -4 -32 -13 -4 -12 -3 -12 5 -1 6 8 11 9 13 3 2 -6 20 -13 39 -16 19 -3
29 -3 23 0 -7 3 -13 13 -13 23 0 18 -42 61 -60 61 -6 0 -10 -7 -10 -16z"/>
<path d="M10931 3264 c0 -11 3 -14 6 -6 3 7 2 16 -1 19 -3 4 -6 -2 -5 -13z"/>
<path d="M7465 3250 c-3 -5 -1 -10 4 -10 6 0 11 5 11 10 0 6 -2 10 -4 10 -3 0
-8 -4 -11 -10z"/>
<path d="M11350 3253 c-64 -18 -115 -50 -113 -72 2 -14 -2 -18 -17 -14 -16 4
-19 2 -14 -11 3 -9 9 -16 13 -16 3 0 12 -9 18 -20 11 -16 10 -18 -2 -14 -8 4
-15 1 -15 -5 0 -6 -9 -20 -20 -31 -11 -11 -20 -26 -20 -34 0 -8 -7 -17 -16
-20 -8 -3 -13 -2 -10 3 3 4 -11 8 -32 8 -20 0 -27 -2 -14 -4 29 -6 28 -27 -2
-41 -17 -7 -27 -7 -35 1 -13 13 -15 51 -2 43 10 -7 20 23 14 42 -3 6 -9 12
-14 12 -5 0 -9 -6 -9 -12 -1 -17 -50 -77 -50 -60 0 17 -25 15 -40 -3 -7 -8
-20 -15 -29 -14 -10 0 -11 2 -3 6 14 5 17 33 3 33 -5 0 -16 -7 -25 -15 -8 -8
-19 -15 -24 -15 -10 0 -22 -23 -22 -40 0 -4 9 -6 19 -3 12 3 17 11 14 19 -3 8
0 14 6 14 6 0 11 -18 11 -42 0 -32 3 -39 10 -28 9 13 10 13 10 0 0 -13 2 -13
9 -1 6 10 33 16 78 19 37 3 71 9 74 15 11 17 31 -31 21 -50 -5 -10 -6 -27 -2
-38 5 -14 9 -5 14 33 10 73 14 83 40 77 14 -4 28 2 43 17 61 63 63 67 59 108
-3 28 0 40 9 40 7 0 15 5 17 11 3 8 10 6 21 -5 10 -11 25 -15 36 -11 38 12 29
128 -9 118z m14 -90 c-5 -5 -12 -12 -15 -16 -3 -5 -9 -2 -12 7 -5 12 0 16 15
16 12 0 17 -3 12 -7z"/>
<path d="M10611 3154 c0 -11 3 -14 6 -6 3 7 2 16 -1 19 -3 4 -6 -2 -5 -13z"/>
<path d="M7186 3125 c4 -8 1 -15 -5 -15 -6 0 -8 -7 -4 -17 6 -15 7 -15 14 3
11 27 11 44 -1 44 -5 0 -7 -7 -4 -15z"/>
<path d="M11361 3094 c0 -11 3 -14 6 -6 3 7 2 16 -1 19 -3 4 -6 -2 -5 -13z"/>
<path d="M11322 3084 c-14 -16 -5 -18 17 -5 7 5 9 11 5 14 -5 3 -15 -1 -22 -9z"/>
<path d="M10568 3073 c7 -3 16 -2 19 1 4 3 -2 6 -13 5 -11 0 -14 -3 -6 -6z"/>
<path d="M11160 3064 c0 -8 5 -12 10 -9 6 3 10 10 10 16 0 5 -4 9 -10 9 -5 0
-10 -7 -10 -16z"/>
<path d="M9860 3019 c0 -5 5 -7 10 -4 6 3 10 8 10 11 0 2 -4 4 -10 4 -5 0 -10
-5 -10 -11z"/>
<path d="M9796 3005 c-3 -9 0 -15 9 -15 9 0 12 6 9 15 -4 8 -7 15 -9 15 -2 0
-5 -7 -9 -15z"/>
<path d="M10485 2989 c-4 -6 -5 -12 -2 -15 2 -3 7 2 10 11 7 17 1 20 -8 4z"/>
<path d="M7051 2954 c0 -11 3 -14 6 -6 3 7 2 16 -1 19 -3 4 -6 -2 -5 -13z"/>
<path d="M10460 2935 c0 -16 -6 -25 -15 -25 -8 0 -15 -8 -14 -17 0 -11 3 -13
6 -5 2 6 11 12 19 12 9 0 14 11 14 30 0 17 -2 30 -5 30 -3 0 -5 -11 -5 -25z"/>
<path d="M10401 2914 c0 -11 3 -14 6 -6 3 7 2 16 -1 19 -3 4 -6 -2 -5 -13z"/>
<path d="M6827 2886 c-10 -25 -9 -38 3 -31 6 3 10 1 10 -6 0 -7 2 -10 5 -8 2
3 1 18 -3 34 -7 24 -9 26 -15 11z"/>
<path d="M10310 2830 c0 -5 7 -10 16 -10 8 0 12 5 9 10 -3 6 -10 10 -16 10 -5
0 -9 -4 -9 -10z"/>
<path d="M6730 2800 c0 -5 5 -10 11 -10 5 0 7 5 4 10 -3 6 -8 10 -11 10 -2 0
-4 -4 -4 -10z"/>
<path d="M9550 2800 c0 -5 5 -10 11 -10 5 0 7 5 4 10 -3 6 -8 10 -11 10 -2 0
-4 -4 -4 -10z"/>
<path d="M10820 2751 c0 -11 3 -27 6 -36 5 -13 8 -14 15 -3 14 22 10 58 -6 58
-8 0 -15 -9 -15 -19z"/>
<path d="M9371 2751 c-11 -7 -11 -13 -1 -27 9 -15 10 -15 6 -2 -3 9 0 19 7 21
7 2 10 7 7 10 -3 3 -12 2 -19 -2z"/>
<path d="M9400 2745 c0 -5 5 -17 10 -25 5 -8 10 -10 10 -5 0 6 -5 17 -10 25
-5 8 -10 11 -10 5z"/>
<path d="M9447 2739 c-19 -11 -24 -40 -5 -36 7 1 15 -11 19 -28 4 -16 8 -23 9
-15 12 71 5 94 -23 79z"/>
<path d="M6590 2730 c0 -5 4 -10 9 -10 6 0 13 5 16 10 3 6 -1 10 -9 10 -9 0
-16 -4 -16 -10z"/>
<path d="M9540 2726 c0 -8 4 -17 9 -20 5 -4 7 3 4 14 -6 23 -13 26 -13 6z"/>
<path d="M10411 2711 c-8 -5 -11 -16 -8 -25 10 -25 27 -19 27 9 0 28 0 28 -19
16z"/>
<path d="M9485 2700 c3 -5 8 -10 11 -10 2 0 4 5 4 10 0 6 -5 10 -11 10 -5 0
-7 -4 -4 -10z"/>
<path d="M10540 2684 c0 -8 5 -12 10 -9 6 4 8 11 5 16 -9 14 -15 11 -15 -7z"/>
<path d="M10116 2665 c4 -8 8 -15 10 -15 2 0 4 7 4 15 0 8 -4 15 -10 15 -5 0
-7 -7 -4 -15z"/>
<path d="M10380 2665 c0 -8 5 -15 10 -15 6 0 10 7 10 15 0 8 -4 15 -10 15 -5
0 -10 -7 -10 -15z"/>
<path d="M9435 2661 c-3 -5 -1 -12 5 -16 5 -3 10 1 10 9 0 18 -6 21 -15 7z"/>
<path d="M8866 2651 c4 -9 0 -19 -11 -28 -14 -9 -15 -13 -4 -13 30 0 40 15 23
36 -8 10 -12 13 -8 5z"/>
<path d="M9084 2635 c-15 -13 -25 -27 -22 -31 7 -6 20 4 47 39 19 24 9 21 -25
-8z"/>
<path d="M9353 2629 c4 -13 7 -27 7 -31 0 -5 5 -8 11 -8 15 0 6 53 -10 58 -10
4 -12 -1 -8 -19z"/>
<path d="M9120 2630 c-13 -8 -12 -10 3 -10 9 0 17 5 17 10 0 12 -1 12 -20 0z"/>
<path d="M8725 2609 c-4 -6 -5 -12 -2 -15 2 -3 7 2 10 11 7 17 1 20 -8 4z"/>
<path d="M9042 2579 c2 -7 10 -15 17 -17 8 -3 12 1 9 9 -2 7 -10 15 -17 17 -8
3 -12 -1 -9 -9z"/>
<path d="M9137 2570 c-3 -11 -1 -20 4 -20 5 0 9 9 9 20 0 11 -2 20 -4 20 -2 0
-6 -9 -9 -20z"/>
<path d="M10170 2565 c-6 -8 -9 -19 -5 -25 7 -11 34 15 35 33 0 12 -17 8 -30
-8z"/>
<path d="M10315 2550 c3 -5 8 -10 11 -10 2 0 4 5 4 10 0 6 -5 10 -11 10 -5 0
-7 -4 -4 -10z"/>
<path d="M8644 2531 c-10 -2 -22 -8 -25 -13 -4 -6 -18 -10 -33 -10 -15 0 -26
-6 -26 -14 0 -8 -4 -14 -10 -14 -5 0 -10 -4 -10 -10 0 -19 19 -10 26 12 6 19
7 19 16 5 5 -10 15 -17 23 -17 8 0 19 -8 24 -17 8 -13 10 -14 11 -4 0 11 4 10
16 -5 15 -18 15 -18 8 5 -4 15 -2 21 4 17 10 -6 26 23 17 32 -3 3 -5 0 -5 -6
0 -7 -17 -12 -45 -12 -26 0 -45 5 -45 11 0 6 6 9 13 6 6 -2 18 3 24 12 10 13
14 13 21 3 11 -16 62 -6 62 13 0 12 -23 14 -66 6z"/>
<path d="M10213 2498 c-2 -18 0 -20 7 -8 12 18 13 30 2 30 -4 0 -9 -10 -9 -22z"/>
<path d="M8846 2495 c-3 -8 -1 -15 4 -15 6 0 10 7 10 15 0 8 -2 15 -4 15 -2 0
-6 -7 -10 -15z"/>
<path d="M8870 2497 c0 -8 -15 -25 -32 -37 -29 -19 -30 -20 -8 -15 14 4 30 13
36 21 6 7 14 11 17 7 4 -3 7 1 7 10 0 9 -4 19 -10 22 -5 3 -10 0 -10 -8z"/>
<path d="M9075 2499 c-4 -6 -5 -12 -2 -15 2 -3 7 2 10 11 7 17 1 20 -8 4z"/>
<path d="M8795 2480 c-3 -5 -2 -10 4 -10 5 0 13 5 16 10 3 6 2 10 -4 10 -5 0
-13 -4 -16 -10z"/>
<path d="M8765 2470 c3 -5 8 -10 11 -10 2 0 4 5 4 10 0 6 -5 10 -11 10 -5 0
-7 -4 -4 -10z"/>
<path d="M8520 2427 c0 -40 24 -67 42 -49 9 9 8 12 -4 12 -9 0 -20 5 -24 12
-4 7 -3 8 4 4 7 -4 12 -2 12 3 0 6 -4 11 -10 11 -5 0 -7 6 -4 14 3 8 1 17 -5
21 -7 4 -11 -6 -11 -28z"/>
<path d="M8603 2448 c-12 -20 -9 -52 6 -64 9 -7 12 -18 6 -30 -7 -17 -9 -16
-20 11 -7 16 -11 35 -8 42 3 7 -2 13 -12 13 -9 0 -13 -5 -10 -10 4 -6 8 -26
11 -44 4 -31 2 -33 -23 -28 -19 3 -24 2 -18 -7 4 -7 13 -10 21 -7 8 3 14 0 14
-6 0 -9 3 -9 12 0 7 7 20 12 30 12 12 0 18 7 18 21 0 11 4 18 10 14 5 -3 7
-12 3 -20 -3 -8 0 -15 6 -15 6 0 11 7 11 15 0 8 5 15 10 15 6 0 10 12 9 28 0
25 -1 26 -9 5 -8 -19 -12 -20 -35 -10 -23 10 -26 17 -21 45 5 34 2 40 -11 20z"/>
<path d="M8697 2437 c-3 -7 4 -19 16 -27 15 -9 22 -10 25 -1 2 6 12 11 23 11
10 0 19 6 19 13 0 8 4 7 10 -3 8 -13 10 -12 10 3 0 22 -28 22 -53 0 -18 -17
-19 -17 -32 0 -10 14 -14 15 -18 4z"/>
<path d="M8651 2404 c0 -11 3 -14 6 -6 3 7 2 16 -1 19 -3 4 -6 -2 -5 -13z"/>
<path d="M8690 2400 c0 -5 5 -10 10 -10 6 0 10 5 10 10 0 6 -4 10 -10 10 -5 0
-10 -4 -10 -10z"/>
<path d="M6141 2374 c0 -11 3 -14 6 -6 3 7 2 16 -1 19 -3 4 -6 -2 -5 -13z"/>
<path d="M8487 2364 c-4 -4 -4 -19 -2 -33 4 -20 3 -21 -3 -7 -8 17 -9 17 -25
2 -19 -19 -23 -46 -7 -46 6 0 10 7 10 15 0 8 5 15 11 15 5 0 7 -6 3 -12 -6
-10 -4 -10 8 0 23 19 41 72 24 72 -7 0 -16 -3 -19 -6z"/>
<path d="M8782 2361 c2 -7 7 -12 11 -12 12 1 9 15 -3 20 -7 2 -11 -2 -8 -8z"/>
<path d="M8303 2348 c3 -10 2 -20 -3 -23 -14 -9 -12 -22 4 -28 10 -4 12 1 9
16 -4 18 -3 19 6 7 6 -8 11 -10 11 -5 -1 6 -8 19 -17 30 -12 16 -14 16 -10 3z"/>
<path d="M8420 2350 c0 -5 5 -10 11 -10 5 0 7 5 4 10 -3 6 -8 10 -11 10 -2 0
-4 -4 -4 -10z"/>
<path d="M8981 2334 c0 -11 3 -14 6 -6 3 7 2 16 -1 19 -3 4 -6 -2 -5 -13z"/>
<path d="M8392 2330 c2 -8 -3 -14 -9 -12 -7 1 -13 -5 -13 -14 0 -8 5 -12 11
-8 6 3 15 0 20 -7 5 -9 7 -5 5 14 -1 15 -6 30 -10 35 -4 4 -6 0 -4 -8z"/>
<path d="M8745 2310 c-10 -11 -22 -17 -26 -14 -5 3 -9 0 -9 -5 0 -6 -7 -11
-15 -11 -8 0 -15 -5 -15 -10 0 -7 8 -6 23 1 12 7 23 12 25 11 9 -7 23 1 32 19
16 28 7 34 -15 9z"/>
<path d="M8917 2309 c-4 -15 -1 -19 11 -17 21 4 29 38 9 38 -8 0 -17 -9 -20
-21z"/>
<path d="M8511 2315 c1 -19 18 -51 18 -35 0 8 -4 22 -9 30 -5 8 -9 11 -9 5z"/>
<path d="M5965 2299 c-4 -6 -4 -13 -1 -16 3 -4 6 -1 6 6 0 7 5 9 12 5 7 -4 8
-3 4 4 -9 15 -13 15 -21 1z"/>
<path d="M10467 2286 c-4 -10 -1 -13 9 -9 15 6 19 23 5 23 -5 0 -11 -7 -14
-14z"/>
<path d="M8555 2277 c-26 -30 -28 -39 -6 -28 11 7 21 18 21 26 0 18 -2 18 -15
2z"/>
<path d="M11225 2280 c3 -5 8 -10 11 -10 2 0 4 5 4 10 0 6 -5 10 -11 10 -5 0
-7 -4 -4 -10z"/>
<path d="M8632 2262 l-23 -18 25 0 c18 0 26 5 26 18 0 22 1 22 -28 0z"/>
<path d="M8860 2269 c0 -5 5 -7 10 -4 6 3 10 8 10 11 0 2 -4 4 -10 4 -5 0 -10
-5 -10 -11z"/>
<path d="M8247 2256 c-9 -24 -9 -28 3 -21 6 3 10 1 10 -4 0 -6 7 -11 15 -11 8
0 15 6 15 14 0 8 6 16 13 19 7 2 8 8 3 13 -5 5 -11 4 -13 -3 -6 -16 -30 -17
-35 -1 -3 7 -7 5 -11 -6z"/>
<path d="M8394 2258 c4 -19 33 -21 40 -3 4 13 2 14 -13 5 -13 -7 -21 -7 -24 0
-3 6 -4 5 -3 -2z"/>
<path d="M11206 2254 c-4 -9 -4 -19 -1 -22 2 -3 7 3 11 12 4 9 4 19 1 22 -2 3
-7 -3 -11 -12z"/>
<path d="M8360 2243 c0 -15 18 -35 23 -27 3 5 -1 15 -9 22 -8 7 -14 9 -14 5z"/>
<path d="M5850 2228 c0 -6 3 -9 6 -6 3 4 19 2 36 -2 25 -8 28 -7 18 5 -15 18
-60 20 -60 3z"/>
<path d="M5930 2230 c0 -5 5 -10 10 -10 6 0 10 5 10 10 0 6 -4 10 -10 10 -5 0
-10 -4 -10 -10z"/>
<path d="M8187 2222 c1 -8 3 -19 3 -25 0 -7 4 -6 10 3 12 19 13 33 1 26 -5 -4
-11 -3 -14 1 -2 5 -2 2 0 -5z"/>
<path d="M8310 2231 c0 -5 5 -13 10 -16 6 -3 10 -2 10 4 0 5 -4 13 -10 16 -5
3 -10 2 -10 -4z"/>
<path d="M8875 2230 c-3 -5 -1 -10 4 -10 6 0 11 5 11 10 0 6 -2 10 -4 10 -3 0
-8 -4 -11 -10z"/>
<path d="M8123 2210 c-3 -11 -9 -17 -14 -14 -5 3 -9 0 -9 -6 0 -7 7 -10 15 -6
9 3 15 0 15 -9 0 -8 5 -15 10 -15 7 0 7 7 0 21 -7 11 -9 27 -6 35 3 8 3 14 0
14 -3 0 -8 -9 -11 -20z"/>
<path d="M8788 2205 c-15 -18 -28 -23 -45 -19 -17 5 -23 2 -23 -10 0 -9 5 -16
10 -16 6 0 10 -4 10 -10 0 -5 -7 -10 -15 -10 -8 0 -15 -5 -15 -11 0 -6 7 -8
16 -5 9 3 18 6 20 6 2 0 4 4 4 10 0 17 34 50 51 50 25 0 44 26 24 34 -9 3 -24
-4 -37 -19z"/>
<path d="M5851 2196 c-13 -16 -2 -29 16 -18 7 4 8 13 4 20 -6 10 -10 10 -20
-2z"/>
<path d="M5925 2179 c-4 -6 -5 -12 -2 -15 2 -3 7 2 10 11 7 17 1 20 -8 4z"/>
<path d="M8536 2175 c-3 -8 -1 -15 3 -15 5 0 11 7 15 15 3 8 1 15 -3 15 -5 0
-11 -7 -15 -15z"/>
<path d="M11092 2175 c-12 -9 -22 -22 -22 -30 0 -8 -6 -18 -14 -22 -12 -7 -36
-45 -36 -57 0 -3 7 -3 15 0 9 4 15 0 15 -7 0 -8 12 0 25 16 14 17 32 38 41 47
12 12 14 24 8 42 -9 25 -10 26 -32 11z m25 -37 c-3 -8 -6 -5 -6 6 -1 11 2 17
5 13 3 -3 4 -12 1 -19z"/>
<path d="M10900 2164 c0 -8 5 -12 10 -9 6 3 10 10 10 16 0 5 -4 9 -10 9 -5 0
-10 -7 -10 -16z"/>
<path d="M8169 2143 c8 -30 31 -44 31 -18 0 9 -4 13 -10 10 -5 -3 -10 3 -10
14 0 12 -4 21 -9 21 -5 0 -6 -12 -2 -27z"/>
<path d="M8190 2166 c0 -2 7 -6 15 -10 8 -3 15 -1 15 4 0 6 -7 10 -15 10 -8 0
-15 -2 -15 -4z"/>
<path d="M8048 2142 c-16 -17 -16 -18 3 -18 10 0 19 7 19 16 0 13 1 13 10 0 8
-13 10 -12 10 3 0 22 -20 21 -42 -1z"/>
<path d="M8633 2143 c-25 -17 -20 -43 8 -43 13 0 17 5 12 18 -6 14 -4 15 8 5
9 -8 20 -9 29 -3 13 8 12 10 -2 10 -9 0 -21 6 -25 14 -7 12 -11 11 -30 -1z"/>
<path d="M8670 2150 c0 -5 7 -10 15 -10 8 0 15 5 15 10 0 6 -7 10 -15 10 -8 0
-15 -4 -15 -10z"/>
<path d="M8113 2143 c-7 -3 -13 -12 -12 -21 0 -11 2 -12 6 -4 2 6 13 12 24 12
14 0 19 -7 19 -30 0 -16 5 -30 10 -30 12 0 13 12 1 43 -10 26 -28 37 -48 30z"/>
<path d="M8350 2131 c0 -5 5 -13 10 -16 6 -3 10 -2 10 4 0 5 -4 13 -10 16 -5
3 -10 2 -10 -4z"/>
<path d="M8254 2102 c-12 -8 -14 -82 -2 -82 4 0 8 8 9 18 0 9 3 29 5 45 5 29
4 30 -12 19z"/>
<path d="M8400 2100 c0 -5 5 -10 11 -10 5 0 7 5 4 10 -3 6 -8 10 -11 10 -2 0
-4 -4 -4 -10z"/>
<path d="M8671 2084 c0 -11 3 -14 6 -6 3 7 2 16 -1 19 -3 4 -6 -2 -5 -13z"/>
<path d="M8352 2070 c-14 -23 -38 -26 -46 -7 -2 6 -4 1 -3 -13 1 -18 -3 -25
-16 -25 -22 0 -46 -35 -25 -35 7 0 2 -9 -11 -19 -20 -15 -22 -21 -12 -39 15
-29 14 -32 -13 -32 -13 0 -26 -6 -29 -14 -5 -12 2 -13 30 -9 34 6 35 5 23 -16
-6 -13 -9 -25 -6 -29 3 -3 6 -1 6 5 0 5 13 8 29 5 22 -3 29 1 34 18 4 16 2 20
-9 16 -24 -9 -16 21 11 38 14 9 25 21 25 27 0 6 7 17 15 25 11 11 12 20 5 34
-13 23 -13 43 -1 35 13 -7 25 35 14 46 -5 5 -14 0 -21 -11z m-63 -157 c1 -7
-6 -13 -14 -13 -11 0 -14 8 -11 33 3 17 5 34 6 37 2 6 18 -41 19 -57z"/>
<path d="M8064 2069 c-3 -6 -2 -15 3 -20 5 -5 9 -1 9 11 0 23 -2 24 -12 9z"/>
<path d="M8190 2063 c0 -10 4 -14 8 -8 4 6 11 13 16 18 5 4 2 7 -7 7 -10 0
-17 -8 -17 -17z"/>
<path d="M5626 2041 c-4 -7 -5 -15 -2 -18 9 -9 19 4 14 18 -4 11 -6 11 -12 0z"/>
<path d="M8204 2025 c-7 -17 3 -35 18 -35 7 0 6 6 -2 15 -9 10 -9 15 -1 15 6
0 11 5 11 10 0 15 -20 12 -26 -5z"/>
<path d="M8401 2022 c-6 -10 -8 -30 -5 -43 5 -19 3 -21 -5 -9 -7 10 -11 11
-11 3 0 -7 -1 -16 -2 -20 -2 -3 7 -7 20 -8 12 -1 22 3 22 9 0 6 5 4 10 -4 9
-13 11 -13 20 0 5 8 10 21 10 28 0 6 5 12 10 12 6 0 4 -13 -5 -30 -9 -16 -20
-30 -25 -30 -6 0 -19 -9 -31 -21 -16 -16 -23 -18 -35 -8 -12 10 -13 9 -8 -5 4
-11 1 -16 -10 -16 -9 0 -16 5 -16 10 0 6 -5 10 -12 10 -6 0 -1 -11 11 -24 l23
-25 24 22 c50 47 93 74 125 79 14 2 25 11 27 23 l4 20 -16 -20 c-13 -17 -17
-18 -25 -5 -6 8 -6 17 -1 20 11 7 -1 26 -15 25 -5 0 -15 -4 -22 -8 -8 -5 -17
0 -25 13 -16 25 -24 25 -37 2z m49 -38 c0 -2 -7 -4 -15 -4 -8 0 -15 4 -15 10
0 5 7 7 15 4 8 -4 15 -8 15 -10z"/>
<path d="M8667 2027 c-3 -8 1 -14 9 -14 7 0 15 6 18 14 3 7 -1 13 -8 13 -8 0
-16 -6 -19 -13z"/>
<path d="M8180 1975 c-10 -13 -9 -15 8 -15 15 0 20 5 16 15 -4 8 -7 15 -9 15
-1 0 -8 -7 -15 -15z"/>
<path d="M7838 1948 c-3 -7 -13 -13 -24 -13 -13 0 -18 -6 -16 -17 2 -12 -4
-18 -18 -18 -12 0 -20 -7 -21 -17 0 -15 -2 -15 -9 2 -12 27 -12 37 -1 30 5 -3
12 -1 16 5 7 12 -14 13 -32 2 -15 -10 -33 -57 -33 -88 0 -18 -5 -24 -22 -24
-18 0 -20 2 -8 10 8 5 11 12 8 15 -4 4 -11 4 -17 0 -14 -8 -14 -55 0 -55 12 0
1 -42 -14 -51 -5 -4 -6 -12 -2 -19 5 -8 4 -11 -3 -7 -14 9 -42 -2 -42 -17 0
-7 11 -22 25 -34 27 -23 34 -48 11 -39 -7 3 -28 -10 -47 -29 -18 -19 -27 -34
-21 -34 7 0 16 8 19 18 6 14 8 13 14 -8 7 -24 7 -24 8 -2 1 15 7 22 21 22 12
0 20 7 20 16 0 10 6 14 14 11 8 -3 17 -1 20 6 2 7 5 4 5 -6 1 -10 -6 -20 -14
-23 -8 -4 -15 -11 -15 -18 0 -6 13 3 29 19 16 17 27 33 25 37 -7 12 8 38 18
32 6 -4 5 -10 -3 -15 -18 -11 -8 -19 26 -22 15 -1 30 4 32 11 3 7 -4 12 -16
12 -12 0 -21 6 -21 15 0 8 -4 15 -10 15 -19 0 -22 48 -5 77 16 27 16 27 11 3
-5 -24 -4 -24 9 -6 8 11 15 24 15 29 0 10 26 37 36 38 4 0 11 -5 15 -13 6 -8
9 -1 10 22 0 24 3 30 7 17 7 -16 10 -15 36 12 28 29 28 29 7 40 -21 12 -29 41
-11 41 6 0 10 -7 10 -15 0 -8 8 -15 18 -14 10 0 12 3 5 6 -19 7 -16 20 7 26
14 3 28 -3 43 -18 17 -18 27 -21 42 -14 18 9 18 9 -2 5 -27 -5 -41 12 -22 26
11 8 10 9 -3 4 -12 -3 -18 0 -18 9 0 18 -31 20 -49 3 -11 -10 -14 -10 -18 0
-6 16 -40 16 -45 0z m-11 -70 c-3 -8 -6 -5 -6 6 -1 11 2 17 5 13 3 -3 4 -12 1
-19z"/>
<path d="M8000 1945 c0 -9 6 -12 15 -9 8 4 15 10 15 15 0 5 -7 9 -15 9 -8 0
-15 -7 -15 -15z"/>
<path d="M8050 1945 c0 -8 -4 -15 -10 -15 -5 0 -10 -10 -10 -21 0 -20 1 -21
25 -5 21 14 28 14 45 4 11 -7 18 -19 15 -26 -7 -18 13 -54 26 -47 14 9 11 25
-6 25 -8 0 -15 4 -15 9 0 5 10 7 23 3 18 -4 15 1 -15 30 -21 19 -38 40 -38 46
0 7 -9 12 -20 12 -11 0 -20 -7 -20 -15z"/>
<path d="M5496 1921 c-4 -7 -5 -15 -2 -18 9 -9 19 4 14 18 -4 11 -6 11 -12 0z"/>
<path d="M8186 1914 c-5 -14 -4 -15 9 -4 17 14 19 20 6 20 -5 0 -12 -7 -15
-16z"/>
<path d="M8011 1874 c0 -11 3 -14 6 -6 3 7 2 16 -1 19 -3 4 -6 -2 -5 -13z"/>
<path d="M10457 1876 c-18 -14 -25 -62 -6 -51 10 7 32 55 27 61 -2 1 -11 -3
-21 -10z"/>
<path d="M8073 1840 c-6 -16 -7 -30 -2 -30 5 0 9 7 9 15 0 18 16 20 23 3 3 -7
6 -8 6 -2 1 5 -5 18 -12 27 -11 16 -13 15 -24 -13z"/>
<path d="M8210 1860 c0 -5 -6 -10 -14 -10 -7 0 -16 -10 -19 -22 -5 -20 -4 -21
6 -7 12 16 18 19 37 19 6 0 10 7 10 15 0 8 -4 15 -10 15 -5 0 -10 -4 -10 -10z"/>
<path d="M10625 1850 c-16 -18 -17 -23 -5 -30 10 -7 11 -10 3 -10 -7 0 -13 -4
-13 -10 0 -22 29 -8 38 19 14 40 1 57 -23 31z"/>
<path d="M11530 1854 c0 -14 3 -14 15 -4 8 7 15 14 15 16 0 2 -7 4 -15 4 -8 0
-15 -7 -15 -16z"/>
<path d="M8307 1834 c-23 -20 -25 -24 -10 -24 20 0 57 36 45 44 -4 2 -20 -7
-35 -20z"/>
<path d="M8023 1823 c-7 -3 -12 -14 -12 -26 1 -17 2 -18 6 -4 2 9 8 15 13 12
5 -3 11 -1 14 4 8 12 -5 20 -21 14z"/>
<path d="M8115 1809 c-4 -6 -5 -12 -2 -15 2 -3 7 2 10 11 7 17 1 20 -8 4z"/>
<path d="M8163 1753 c-1 -29 4 -53 9 -53 5 0 6 10 3 23 -4 15 -3 18 3 9 11
-17 74 -12 80 6 4 14 -32 13 -55 -1 -13 -8 -22 3 -33 41 -5 21 -7 15 -7 -25z"/>
<path d="M7895 1779 c-4 -6 -5 -12 -2 -15 2 -3 7 2 10 11 7 17 1 20 -8 4z"/>
<path d="M8197 1768 c-5 -18 18 -14 40 8 10 9 7 12 -12 10 -13 0 -26 -9 -28
-18z"/>
<path d="M7776 1764 c-9 -24 -7 -28 9 -14 17 14 20 30 6 30 -5 0 -12 -7 -15
-16z"/>
<path d="M7530 1760 c-9 -6 -10 -10 -3 -10 6 0 15 5 18 10 8 12 4 12 -15 0z"/>
<path d="M7490 1736 c0 -4 8 -15 18 -26 17 -19 18 -19 18 0 0 10 -2 17 -5 15
-2 -3 -10 0 -18 6 -7 6 -13 8 -13 5z"/>
<path d="M7557 1721 c-4 -17 -3 -21 5 -13 5 5 8 16 6 23 -3 8 -7 3 -11 -10z"/>
<path d="M7880 1719 c0 -20 -34 -52 -44 -42 -9 10 5 -29 16 -44 7 -8 17 -7 40
4 16 9 33 12 37 7 7 -11 37 -12 47 -1 7 7 -9 11 -32 8 -7 -1 -14 6 -18 14 -3
9 -2 13 4 10 6 -3 10 0 10 7 0 9 3 9 10 -2 8 -13 10 -12 10 3 0 9 -7 17 -15
17 -8 0 -15 5 -15 12 0 9 -3 9 -12 0 -9 -9 -14 -7 -24 6 -12 15 -13 15 -14 1z
m30 -51 c0 -5 -4 -7 -9 -4 -5 3 -14 -1 -21 -9 -16 -19 -30 -19 -30 0 0 8 7 15
15 15 8 0 15 7 15 16 0 14 3 14 15 4 8 -7 15 -17 15 -22z"/>
<path d="M7460 1710 c0 -5 5 -10 11 -10 5 0 7 5 4 10 -3 6 -8 10 -11 10 -2 0
-4 -4 -4 -10z"/>
<path d="M7730 1704 c0 -3 9 -17 20 -31 22 -29 25 -26 10 11 -8 23 -30 37 -30
20z"/>
<path d="M7971 1684 c0 -11 3 -14 6 -6 3 7 2 16 -1 19 -3 4 -6 -2 -5 -13z"/>
<path d="M8070 1692 c0 -5 7 -9 15 -9 8 0 15 4 15 9 0 4 -7 8 -15 8 -8 0 -15
-4 -15 -8z"/>
<path d="M7366 1674 c-9 -23 -7 -31 4 -14 8 13 10 12 10 -4 0 -11 5 -16 14
-13 10 4 12 0 8 -15 -4 -18 -7 -19 -16 -6 -17 23 -42 28 -64 13 -10 -8 -22
-11 -26 -8 -9 9 -7 -10 3 -25 7 -11 9 -10 14 3 4 10 16 15 31 12 26 -3 48 -17
28 -17 -6 0 -9 -7 -6 -15 4 -8 1 -15 -5 -15 -6 0 -11 10 -12 23 0 21 -1 21 -8
2 l-8 -20 -5 20 c-4 14 -6 15 -7 4 0 -9 6 -22 14 -29 8 -7 15 -20 15 -29 0
-14 -2 -14 -10 -1 -8 11 -9 7 -4 -15 4 -23 3 -26 -5 -15 -9 12 -11 11 -11 -7
0 -24 22 -43 28 -25 2 8 8 7 19 -3 21 -21 33 -19 32 8 0 18 -1 19 -7 4 -6 -15
-10 -13 -25 13 -16 26 -16 30 -3 30 10 0 13 -6 10 -17 -5 -16 -4 -16 8 -3 7 9
22 14 33 12 13 -2 16 0 8 5 -19 13 -21 55 -3 60 13 4 13 3 0 -6 -8 -5 -11 -13
-7 -17 3 -4 13 -1 22 6 12 10 15 9 15 -6 1 -17 2 -17 13 -3 7 9 18 18 26 20
11 4 10 9 -5 24 -17 17 -19 17 -22 2 -2 -9 -8 -17 -13 -17 -5 0 -7 11 -3 25 4
16 2 25 -6 25 -7 0 -10 -7 -6 -15 3 -9 0 -15 -8 -15 -9 0 -12 7 -9 20 6 24 16
25 49 3 19 -12 28 -13 33 -4 4 6 15 9 24 5 18 -7 22 -20 8 -26 -5 -1 -3 -9 5
-16 12 -11 14 -9 14 7 0 15 5 19 16 14 12 -4 15 -2 12 8 -3 8 -13 13 -22 13
-22 -2 -21 33 2 39 16 4 16 5 -1 6 -10 0 -21 -7 -25 -16 -8 -21 -42 -27 -42
-8 0 8 6 15 13 18 6 2 1 2 -13 -1 -37 -7 -92 -3 -106 9 -8 6 -14 4 -18 -7z
m14 -119 c-7 -9 -15 -13 -18 -10 -3 2 1 11 8 20 7 9 15 13 18 10 3 -2 -1 -11
-8 -20z"/>
<path d="M8066 1644 c-7 -28 1 -46 12 -28 4 6 17 14 30 18 12 4 22 15 22 24
-1 16 -2 16 -14 0 -16 -22 -40 -24 -32 -3 3 8 2 15 -3 15 -5 0 -12 -12 -15
-26z"/>
<path d="M7270 1606 c0 -8 -6 -17 -12 -20 -16 -6 18 -30 45 -32 14 -1 15 2 5
13 -9 11 -13 12 -20 1 -7 -9 -8 -4 -4 14 3 15 2 30 -4 33 -5 3 -10 0 -10 -9z"/>
<path d="M7898 1613 c-10 -2 -18 -9 -18 -14 0 -5 -7 -9 -15 -9 -17 0 -19 -9
-6 -29 10 -16 41 -8 41 11 0 9 -3 9 -10 -2 -5 -8 -12 -11 -15 -8 -10 9 4 28
20 28 7 0 15 7 19 15 3 8 4 14 3 14 -1 -1 -10 -3 -19 -6z"/>
<path d="M7926 1603 c-6 -14 -5 -15 5 -6 7 7 10 15 7 18 -3 3 -9 -2 -12 -12z"/>
<path d="M8045 1583 c-25 -6 -45 -22 -45 -36 0 -7 4 -7 12 1 7 7 20 12 29 12
9 0 19 7 23 15 3 8 4 14 3 14 -1 -1 -11 -4 -22 -6z"/>
<path d="M7170 1548 c0 -5 5 -6 11 -2 7 4 10 1 7 -7 -3 -8 -14 -13 -25 -11
-12 2 -23 -4 -27 -13 -4 -13 -2 -14 14 -5 15 8 20 8 20 -2 0 -7 8 -1 17 12 9
14 21 28 26 31 5 4 -3 7 -17 7 -14 0 -26 -5 -26 -10z"/>
<path d="M7276 1523 c5 -5 12 -12 15 -16 3 -5 9 -2 12 7 5 12 0 16 -15 16 -12
0 -17 -3 -12 -7z"/>
<path d="M7210 1510 c-8 -5 -12 -11 -9 -14 2 -3 11 -1 19 4 8 5 12 11 9 14 -2
3 -11 1 -19 -4z"/>
<path d="M8076 1503 c-6 -14 -5 -15 5 -6 7 7 10 15 7 18 -3 3 -9 -2 -12 -12z"/>
<path d="M7695 1490 c-3 -11 -11 -20 -16 -20 -5 0 -9 -8 -9 -17 0 -15 2 -14
15 3 13 17 14 17 15 2 0 -12 8 -18 25 -18 26 0 33 14 14 26 -6 3 -15 0 -20 -7
-6 -10 -8 -7 -7 11 2 14 8 28 13 32 6 5 3 8 -7 8 -9 0 -20 -9 -23 -20z"/>
<path d="M7077 1486 c-4 -10 -1 -13 9 -9 15 6 19 23 5 23 -5 0 -11 -7 -14 -14z"/>
<path d="M7105 1479 c-6 -17 -13 -20 -36 -15 -16 3 -29 1 -29 -4 0 -6 -7 -10
-15 -10 -7 0 -19 -8 -24 -17 -8 -13 -10 -14 -11 -4 0 11 -4 9 -15 -5 -15 -19
-15 -19 -8 1 6 17 5 18 -9 5 -20 -19 -13 -31 15 -26 12 3 25 5 30 5 4 1 7 8 7
16 0 18 16 20 23 3 3 -8 6 -7 6 4 1 9 6 20 13 24 7 5 9 2 5 -8 -4 -12 -1 -14
14 -11 10 3 26 0 34 -7 10 -9 15 -9 15 -1 0 6 -5 11 -11 11 -6 0 -9 6 -6 13 2
6 9 11 15 10 5 -1 8 7 5 17 -7 25 -10 25 -18 -1z"/>
<path d="M7740 1490 c0 -5 4 -10 9 -10 6 0 13 5 16 10 3 6 -1 10 -9 10 -9 0
-16 -4 -16 -10z"/>
<path d="M7890 1491 c0 -6 5 -13 12 -17 6 -4 8 -3 4 4 -4 6 5 12 21 15 26 4
26 4 -4 6 -18 0 -33 -3 -33 -8z"/>
<path d="M7280 1469 c0 -18 2 -19 15 -5 8 8 15 17 15 20 0 3 -7 6 -15 6 -9 0
-15 -9 -15 -21z"/>
<path d="M7176 1467 c3 -10 9 -15 12 -12 3 3 0 11 -7 18 -10 9 -11 8 -5 -6z"/>
<path d="M7805 1470 c-3 -5 -1 -10 4 -10 6 0 11 5 11 10 0 6 -2 10 -4 10 -3 0
-8 -4 -11 -10z"/>
<path d="M8060 1462 c0 -5 7 -9 15 -9 8 0 15 4 15 9 0 4 -7 8 -15 8 -8 0 -15
-4 -15 -8z"/>
<path d="M7520 1451 c0 -6 -10 -11 -22 -11 -21 -1 -22 -1 -4 -11 14 -9 22 -8
33 4 10 10 11 17 4 21 -6 4 -11 2 -11 -3z"/>
<path d="M7625 1450 c-3 -5 -1 -10 4 -10 6 0 11 5 11 10 0 6 -2 10 -4 10 -3 0
-8 -4 -11 -10z"/>
<path d="M7274 1416 c-34 -35 -40 -50 -15 -37 11 7 21 16 21 22 0 6 5 7 10 4
6 -3 10 3 10 14 0 25 1 25 -26 -3z"/>
<path d="M7340 1425 c0 -8 2 -15 4 -15 2 0 6 7 10 15 3 8 1 15 -4 15 -6 0 -10
-7 -10 -15z"/>
<path d="M7610 1419 c0 -5 9 -9 20 -9 11 0 20 2 20 4 0 2 -9 6 -20 9 -11 3
-20 1 -20 -4z"/>
<path d="M7125 1403 c-5 -12 -9 -14 -12 -5 -6 14 -33 16 -33 2 0 -5 3 -10 8
-10 4 0 17 -3 30 -6 16 -5 22 -2 22 10 0 10 4 15 9 11 5 -3 12 -1 16 5 3 5 -3
10 -13 10 -11 0 -23 -8 -27 -17z"/>
<path d="M7818 1413 c7 -3 16 -2 19 1 4 3 -2 6 -13 5 -11 0 -14 -3 -6 -6z"/>
<path d="M4790 1400 c0 -5 7 -7 15 -4 8 4 15 8 15 10 0 2 -7 4 -15 4 -8 0 -15
-4 -15 -10z"/>
<path d="M8020 1395 c0 -9 6 -12 15 -9 8 4 12 10 9 15 -8 14 -24 10 -24 -6z"/>
<path d="M6885 1379 c-11 -17 1 -21 15 -4 8 9 8 15 2 15 -6 0 -14 -5 -17 -11z"/>
<path d="M7435 1379 c-4 -6 -5 -12 -2 -15 2 -3 7 2 10 11 7 17 1 20 -8 4z"/>
<path d="M8846 1377 c3 -10 9 -15 12 -12 3 3 0 11 -7 18 -10 9 -11 8 -5 -6z"/>
<path d="M4810 1365 c0 -8 4 -15 10 -15 5 0 7 7 4 15 -4 8 -8 15 -10 15 -2 0
-4 -7 -4 -15z"/>
<path d="M6845 1370 c3 -5 10 -10 16 -10 5 0 9 5 9 10 0 6 -7 10 -16 10 -8 0
-12 -4 -9 -10z"/>
<path d="M7050 1370 c0 -5 11 -9 25 -8 14 1 25 6 25 10 0 4 -11 8 -25 8 -14 0
-25 -4 -25 -10z"/>
<path d="M7745 1370 c-3 -5 -1 -10 4 -10 6 0 11 5 11 10 0 6 -2 10 -4 10 -3 0
-8 -4 -11 -10z"/>
<path d="M6915 1352 c-5 -4 -17 -16 -25 -27 -14 -18 -13 -19 1 -8 9 7 18 10
21 8 3 -3 8 3 11 15 6 23 6 22 -8 12z"/>
<path d="M7025 1350 c3 -5 8 -10 11 -10 2 0 4 5 4 10 0 6 -5 10 -11 10 -5 0
-7 -4 -4 -10z"/>
<path d="M7822 1331 c-6 -16 -20 -32 -31 -36 -12 -3 -21 -11 -21 -16 0 -5 -7
-9 -17 -9 -13 0 -12 -4 7 -20 25 -22 44 -17 37 10 -2 9 4 22 14 29 11 6 19 20
19 31 0 11 5 20 10 20 6 0 10 5 10 10 0 21 -19 9 -28 -19z"/>
<path d="M8380 1350 c0 -5 -7 -7 -15 -4 -8 4 -15 1 -15 -5 0 -6 -3 -10 -7 -10
-23 4 -32 -4 -38 -32 -5 -20 -12 -29 -21 -25 -7 3 -16 1 -19 -4 -4 -6 -1 -10
4 -10 6 0 11 -4 11 -10 0 -5 -6 -10 -14 -10 -7 0 -16 -9 -19 -20 -4 -16 -2
-18 11 -11 52 28 160 151 133 151 -6 0 -11 -4 -11 -10z"/>
<path d="M4707 1343 c-4 -3 -7 -11 -7 -17 0 -6 5 -5 12 2 6 6 9 14 7 17 -3 3
-9 2 -12 -2z"/>
<path d="M6846 1333 c-6 -14 -5 -15 5 -6 7 7 10 15 7 18 -3 3 -9 -2 -12 -12z"/>
<path d="M6921 1305 c-23 -25 -37 -45 -31 -45 6 0 13 7 16 15 3 8 14 17 25 20
10 4 19 12 19 20 0 7 6 15 13 18 6 2 9 7 6 11 -3 3 -25 -14 -48 -39z"/>
<path d="M7510 1341 c0 -6 4 -13 10 -16 6 -3 7 1 4 9 -7 18 -14 21 -14 7z"/>
<path d="M7555 1330 c-3 -5 -1 -10 4 -10 6 0 11 5 11 10 0 6 -2 10 -4 10 -3 0
-8 -4 -11 -10z"/>
<path d="M7471 1314 c0 -11 3 -14 6 -6 3 7 2 16 -1 19 -3 4 -6 -2 -5 -13z"/>
<path d="M8680 1317 c0 -19 10 -27 26 -20 21 8 17 33 -6 33 -11 0 -20 -6 -20
-13z"/>
<path d="M8590 1311 c0 -7 -4 -9 -10 -6 -5 3 -10 1 -10 -4 0 -6 4 -11 9 -11
13 0 25 20 17 27 -3 4 -6 1 -6 -6z"/>
<path d="M9432 1299 c-16 -24 -9 -37 11 -21 8 7 17 9 20 5 9 -8 9 1 1 21 -8
21 -17 20 -32 -5z"/>
<path d="M4655 1300 c-3 -5 -1 -10 4 -10 6 0 11 5 11 10 0 6 -2 10 -4 10 -3 0
-8 -4 -11 -10z"/>
<path d="M7000 1300 c0 -5 5 -10 11 -10 5 0 7 5 4 10 -3 6 -8 10 -11 10 -2 0
-4 -4 -4 -10z"/>
<path d="M7501 1280 c-13 -11 -19 -20 -13 -20 10 0 42 27 42 36 0 7 -4 5 -29
-16z"/>
<path d="M9120 1260 c-14 -11 -31 -20 -38 -20 -19 0 -9 -24 11 -28 18 -4 40
13 50 38 4 12 6 11 6 -2 1 -10 9 -18 19 -18 10 0 13 3 6 8 -6 4 -15 15 -20 24
-8 16 -11 15 -34 -2z"/>
<path d="M7447 1246 c-4 -10 -1 -13 8 -9 8 3 12 9 9 14 -7 12 -11 11 -17 -5z"/>
<path d="M8995 1240 c-4 -7 -2 -16 6 -21 18 -11 23 -4 11 17 -7 12 -11 13 -17
4z"/>
<path d="M6681 1204 c0 -11 3 -14 6 -6 3 7 2 16 -1 19 -3 4 -6 -2 -5 -13z"/>
<path d="M7063 1198 c-2 -18 0 -20 7 -8 12 18 13 30 2 30 -4 0 -9 -10 -9 -22z"/>
<path d="M7105 1210 c-8 -13 3 -30 19 -30 8 0 21 -10 30 -22 l17 -23 -7 24
c-4 16 -3 21 5 17 6 -4 11 -2 11 4 0 7 -8 9 -19 5 -11 -3 -22 -1 -26 5 -3 6
-11 7 -17 4 -7 -5 -9 -1 -5 9 7 19 2 23 -8 7z"/>
<path d="M4520 1190 c0 -5 5 -10 10 -10 6 0 10 5 10 10 0 6 -4 10 -10 10 -5 0
-10 -4 -10 -10z"/>
<path d="M7240 1190 c-12 -8 -9 -10 13 -10 16 0 26 4 22 10 -8 12 -16 12 -35
0z"/>
<path d="M6976 1163 c-6 -14 -5 -15 5 -6 7 7 10 15 7 18 -3 3 -9 -2 -12 -12z"/>
<path d="M8110 1165 c-14 -7 -23 -16 -20 -18 3 -3 -4 -16 -16 -29 -11 -13 -18
-30 -16 -36 2 -7 -2 -11 -9 -10 -7 2 -14 -5 -17 -14 -2 -13 2 -16 20 -13 13 3
24 9 26 15 2 5 10 10 18 10 20 0 17 20 -3 21 -14 0 -15 2 -3 6 8 3 19 11 23
17 6 7 7 4 3 -6 -3 -10 -1 -18 5 -18 7 0 8 12 4 31 -5 20 -4 29 3 25 6 -3 17
-3 26 0 13 5 14 9 5 20 -14 17 -17 17 -49 -1z"/>
<path d="M4466 1147 c3 -10 9 -15 12 -12 3 3 0 11 -7 18 -10 9 -11 8 -5 -6z"/>
<path d="M9015 1149 c-4 -6 -4 -13 -1 -16 8 -8 36 5 36 17 0 13 -27 13 -35 -1z"/>
<path d="M7711 1143 c-1 -6 4 -15 10 -19 13 -8 36 13 25 23 -4 4 -11 1 -15 -6
-7 -11 -10 -11 -14 0 -3 9 -6 10 -6 2z"/>
<path d="M6605 1130 c-3 -5 -1 -10 4 -10 6 0 11 5 11 10 0 6 -2 10 -4 10 -3 0
-8 -4 -11 -10z"/>
<path d="M8890 1130 c-13 -8 -12 -10 3 -10 9 0 17 5 17 10 0 12 -1 12 -20 0z"/>
<path d="M6679 1108 l-12 -23 24 20 c13 11 26 21 28 22 2 2 -3 3 -12 3 -9 0
-22 -10 -28 -22z"/>
<path d="M6960 1115 c-7 -9 -8 -15 -2 -15 5 0 12 7 16 15 3 8 4 15 2 15 -2 0
-9 -7 -16 -15z"/>
<path d="M8025 1110 c-4 -6 -12 -7 -18 -4 -7 4 -9 4 -5 -1 4 -4 3 -16 -2 -26
-7 -12 -7 -20 0 -24 5 -3 10 3 10 14 0 12 7 21 15 21 8 0 15 7 15 15 0 17 -6
19 -15 5z"/>
<path d="M8930 1110 c0 -5 5 -10 10 -10 6 0 10 5 10 10 0 6 -4 10 -10 10 -5 0
-10 -4 -10 -10z"/>
<path d="M9050 1110 c0 -5 5 -10 10 -10 6 0 10 5 10 10 0 6 -4 10 -10 10 -5 0
-10 -4 -10 -10z"/>
<path d="M8810 1090 c-8 -5 -12 -12 -9 -15 4 -3 12 1 19 10 14 17 11 19 -10 5z"/>
<path d="M6547 1076 c-4 -10 -1 -13 9 -9 15 6 19 23 5 23 -5 0 -11 -7 -14 -14z"/>
<path d="M6645 1080 c-3 -5 -1 -10 4 -10 6 0 11 5 11 10 0 6 -2 10 -4 10 -3 0
-8 -4 -11 -10z"/>
<path d="M6940 1080 c0 -5 5 -10 10 -10 6 0 10 5 10 10 0 6 -4 10 -10 10 -5 0
-10 -4 -10 -10z"/>
<path d="M7170 1080 c0 -5 5 -10 10 -10 6 0 10 5 10 10 0 6 -4 10 -10 10 -5 0
-10 -4 -10 -10z"/>
<path d="M7331 1054 c0 -11 3 -14 6 -6 3 7 2 16 -1 19 -3 4 -6 -2 -5 -13z"/>
<path d="M7960 1061 c0 -5 5 -13 10 -16 6 -3 10 -2 10 4 0 5 -4 13 -10 16 -5
3 -10 2 -10 -4z"/>
<path d="M8114 1055 c-4 -8 -10 -12 -15 -9 -11 6 -11 -7 -1 -23 5 -8 12 -3 19
17 6 17 9 30 7 30 -3 0 -7 -7 -10 -15z"/>
<path d="M6500 1034 c-13 -13 -21 -24 -17 -24 11 0 52 39 46 44 -2 2 -15 -7
-29 -20z"/>
<path d="M4251 994 c0 -11 3 -14 6 -6 3 7 2 16 -1 19 -3 4 -6 -2 -5 -13z"/>
<path d="M7944 985 c-2 -29 2 -31 21 -11 10 10 11 16 2 25 -17 17 -22 14 -23
-14z"/>
<path d="M7290 960 c0 -5 -7 -10 -17 -10 -9 0 -14 -2 -11 -5 8 -9 58 6 58 16
0 5 -7 9 -15 9 -8 0 -15 -4 -15 -10z"/>
<path d="M6700 950 c-9 -6 -10 -10 -3 -10 6 0 15 5 18 10 8 12 4 12 -15 0z"/>
<path d="M6775 950 c-3 -6 1 -7 9 -4 18 7 21 14 7 14 -6 0 -13 -4 -16 -10z"/>
<path d="M7710 956 c0 -9 30 -14 35 -6 4 6 -3 10 -14 10 -12 0 -21 -2 -21 -4z"/>
<path d="M7822 925 c6 -13 15 -22 19 -19 14 8 11 18 -11 32 -18 11 -19 10 -8
-13z"/>
<path d="M6644 898 c-43 -49 -46 -61 -6 -23 23 21 42 40 42 42 0 10 -19 0 -36
-19z"/>
<path d="M7221 904 c0 -11 3 -14 6 -6 3 7 2 16 -1 19 -3 4 -6 -2 -5 -13z"/>
<path d="M7790 910 c0 -5 5 -10 10 -10 6 0 10 5 10 10 0 6 -4 10 -10 10 -5 0
-10 -4 -10 -10z"/>
<path d="M7725 900 c-3 -5 -1 -10 4 -10 6 0 11 5 11 10 0 6 -2 10 -4 10 -3 0
-8 -4 -11 -10z"/>
<path d="M7693 869 c-7 -7 -13 -23 -13 -36 0 -14 -6 -23 -15 -23 -8 0 -15 -4
-15 -10 0 -13 3 -13 34 2 30 13 70 65 43 55 -10 -4 -17 0 -19 9 -2 12 -5 13
-15 3z"/>
<path d="M7166 862 c-2 -4 -1 -14 5 -22 7 -12 9 -10 9 8 0 23 -5 28 -14 14z"/>
<path d="M3936 813 c-6 -14 -5 -15 5 -6 7 7 10 15 7 18 -3 3 -9 -2 -12 -12z"/>
<path d="M6147 823 c-4 -3 -7 -11 -7 -17 0 -6 5 -5 12 2 6 6 9 14 7 17 -3 3
-9 2 -12 -2z"/>
<path d="M6420 820 c0 -5 5 -10 11 -10 5 0 7 5 4 10 -3 6 -8 10 -11 10 -2 0
-4 -4 -4 -10z"/>
<path d="M6750 815 c-11 -13 -10 -14 4 -9 9 3 16 10 16 15 0 13 -6 11 -20 -6z"/>
<path d="M6468 803 c7 -3 16 -2 19 1 4 3 -2 6 -13 5 -11 0 -14 -3 -6 -6z"/>
<path d="M7073 797 c-7 -7 -19 -18 -28 -26 -9 -7 -15 -22 -12 -32 3 -10 -1
-20 -8 -22 -8 -4 -10 3 -7 20 4 20 1 24 -14 21 -11 -2 -26 -11 -35 -20 -9 -10
-19 -18 -23 -18 -3 0 -6 8 -7 18 0 12 -3 10 -10 -7 -7 -18 -6 -27 3 -33 20
-12 38 -9 32 6 -3 7 2 16 11 20 24 9 31 -22 9 -39 -11 -7 -16 -16 -12 -20 3
-4 16 3 27 14 12 12 21 17 21 12 0 -5 -7 -16 -15 -25 -19 -18 -19 -27 -1 -20
8 3 17 15 20 27 3 12 24 35 45 51 46 33 56 53 40 72 -14 17 -20 17 -36 1z m32
-17 c3 -5 1 -10 -4 -10 -6 0 -11 5 -11 10 0 6 2 10 4 10 3 0 8 -4 11 -10z"/>
<path d="M3950 790 c0 -6 7 -10 15 -10 8 0 15 2 15 4 0 2 -7 6 -15 10 -8 3
-15 1 -15 -4z"/>
<path d="M3870 775 c0 -8 5 -15 10 -15 6 0 10 7 10 15 0 8 -4 15 -10 15 -5 0
-10 -7 -10 -15z"/>
<path d="M7622 781 c4 -13 18 -16 19 -4 0 4 -5 9 -11 12 -7 2 -11 -2 -8 -8z"/>
<path d="M7643 745 c-3 -9 -3 -18 -1 -21 3 -3 8 4 11 16 6 23 -1 27 -10 5z"/>
<path d="M3840 741 c0 -10 26 -9 36 2 4 4 -2 7 -14 7 -12 0 -22 -4 -22 -9z"/>
<path d="M6451 728 c1 -16 3 -18 6 -6 2 9 12 19 21 21 12 3 10 5 -5 6 -18 1
-23 -4 -22 -21z"/>
<path d="M7610 739 c0 -5 5 -7 10 -4 6 3 10 8 10 11 0 2 -4 4 -10 4 -5 0 -10
-5 -10 -11z"/>
<path d="M3875 710 c3 -5 8 -10 11 -10 2 0 4 5 4 10 0 6 -5 10 -11 10 -5 0 -7
-4 -4 -10z"/>
<path d="M7081 680 c-6 -18 -9 -36 -6 -38 3 -3 5 0 5 7 0 7 5 9 10 6 15 -9 23
21 12 41 -8 14 -11 11 -21 -16z"/>
<path d="M3840 675 c0 -8 2 -15 4 -15 2 0 6 7 10 15 3 8 1 15 -4 15 -6 0 -10
-7 -10 -15z"/>
<path d="M6910 681 c0 -5 -15 -19 -32 -31 -29 -18 -30 -20 -8 -14 14 3 29 13
33 20 5 10 14 11 32 4 16 -6 25 -6 25 0 0 6 -7 10 -15 10 -8 0 -15 5 -15 10 0
6 -4 10 -10 10 -5 0 -10 -4 -10 -9z"/>
<path d="M3730 668 c0 -7 5 -20 10 -28 8 -12 10 -9 10 13 0 15 -4 27 -10 27
-5 0 -10 -6 -10 -12z"/>
<path d="M7030 658 c0 -33 14 -58 31 -58 23 0 25 18 4 26 -8 4 -15 12 -15 19
0 8 -4 17 -10 20 -5 3 -10 0 -10 -7z"/>
<path d="M6835 610 c-3 -5 -1 -10 4 -10 6 0 11 5 11 10 0 6 -2 10 -4 10 -3 0
-8 -4 -11 -10z"/>
<path d="M6962 600 c0 -14 2 -19 5 -12 2 6 2 18 0 25 -3 6 -5 1 -5 -13z"/>
<path d="M7002 611 c4 -13 18 -16 19 -4 0 4 -5 9 -11 12 -7 2 -11 -2 -8 -8z"/>
<path d="M3690 590 c0 -5 5 -10 11 -10 5 0 7 5 4 10 -3 6 -8 10 -11 10 -2 0
-4 -4 -4 -10z"/>
<path d="M3760 560 c0 -5 5 -10 11 -10 5 0 7 5 4 10 -3 6 -8 10 -11 10 -2 0
-4 -4 -4 -10z"/>
<path d="M6770 540 c-6 -11 -7 -20 -2 -20 6 0 12 9 15 20 3 11 3 20 1 20 -2 0
-8 -9 -14 -20z"/>
<path d="M6905 550 c-3 -5 -1 -10 4 -10 6 0 11 5 11 10 0 6 -2 10 -4 10 -3 0
-8 -4 -11 -10z"/>
<path d="M6400 500 c0 -5 5 -10 11 -10 5 0 7 5 4 10 -3 6 -8 10 -11 10 -2 0
-4 -4 -4 -10z"/>
<path d="M6797 504 c-4 -4 -7 -17 -6 -28 0 -21 1 -21 9 -1 5 12 9 14 9 6 1 -8
4 -12 7 -8 3 3 2 13 -3 22 -5 8 -12 12 -16 9z"/>
<path d="M6386 443 c-6 -14 -5 -15 5 -6 7 7 10 15 7 18 -3 3 -9 -2 -12 -12z"/>
<path d="M6416 391 c-4 -5 -2 -12 3 -15 5 -4 12 -2 15 3 4 5 2 12 -3 15 -5 4
-12 2 -15 -3z"/>
<path d="M6468 361 c-21 -12 -32 -13 -45 -5 -25 15 -49 -14 -49 -59 0 -22 3
-32 8 -24 6 9 8 9 8 -1 0 -7 4 -11 9 -8 5 3 14 -1 21 -9 10 -12 16 -13 26 -4
11 9 14 8 14 -1 0 -8 2 -11 5 -8 10 10 -8 39 -21 34 -17 -7 -17 -6 2 32 15 31
28 40 37 25 2 -5 2 -2 1 5 -2 6 3 12 11 12 8 0 15 4 15 9 0 18 -15 18 -42 2z
m-39 -25 c9 -10 8 -15 -4 -20 -8 -3 -15 -4 -15 -2 0 3 -3 11 -6 20 -8 20 9 21
25 2z"/>
<path d="M3420 360 c0 -5 5 -10 11 -10 5 0 7 5 4 10 -3 6 -8 10 -11 10 -2 0
-4 -4 -4 -10z"/>
<path d="M3370 325 c0 -5 5 -17 10 -25 5 -8 10 -10 10 -5 0 6 -5 17 -10 25 -5
8 -10 11 -10 5z"/>
<path d="M3308 293 c7 -3 16 -2 19 1 4 3 -2 6 -13 5 -11 0 -14 -3 -6 -6z"/>
<path d="M6260 260 c-8 -5 -12 -11 -10 -14 3 -2 14 2 24 10 22 15 10 19 -14 4z"/>
<path d="M6305 228 c-49 -49 -61 -58 -73 -58 -7 0 -12 -4 -12 -9 0 -5 -10 -11
-21 -14 -15 -4 -20 -11 -15 -22 3 -9 2 -13 -4 -10 -15 9 -50 -27 -50 -52 0
-16 -6 -23 -20 -23 -11 0 -23 -7 -26 -15 -9 -23 -21 -18 -29 12 -5 21 -8 24
-16 12 -6 -9 -9 -10 -9 -1 0 18 -24 15 -43 -6 -21 -23 -21 -28 -1 -36 11 -4
15 -2 11 8 -5 12 -2 12 21 0 36 -19 77 -18 97 3 14 13 18 14 25 3 13 -21 39
-20 50 1 6 10 8 19 5 19 -3 0 0 6 7 14 7 8 16 12 21 9 4 -2 14 3 23 11 14 15
14 16 0 16 -13 0 -15 6 -10 27 8 34 14 42 14 19 0 -10 5 -14 11 -11 6 4 8 13
5 21 -3 7 -1 16 4 19 10 6 14 -7 11 -32 -1 -7 3 -13 9 -13 6 0 10 8 9 18 -3
25 21 83 32 76 5 -3 9 0 9 5 0 6 3 10 8 10 19 -3 23 2 12 16 -16 19 -19 18
-55 -17z m-108 -158 c4 -13 3 -13 -6 0 -8 12 -13 12 -23 2 -15 -15 -28 -16
-28 -1 0 5 5 7 10 4 6 -3 10 -1 10 5 0 17 33 8 37 -10z"/>
<path d="M6380 221 c0 -6 4 -13 10 -16 6 -3 7 1 4 9 -7 18 -14 21 -14 7z"/>
<path d="M6514 218 c3 -15 26 -23 26 -8 0 6 -4 9 -9 6 -5 -4 -12 -1 -14 4 -3
6 -4 5 -3 -2z"/>
<path d="M3120 201 c0 -5 5 -13 10 -16 6 -3 10 -2 10 4 0 5 -4 13 -10 16 -5 3
-10 2 -10 -4z"/>
<path d="M6320 175 c0 -9 6 -12 15 -9 8 4 15 7 15 9 0 2 -7 5 -15 9 -9 3 -15
0 -15 -9z"/>
<path d="M6110 165 c-7 -9 -8 -15 -2 -15 5 0 12 7 16 15 3 8 4 15 2 15 -2 0
-9 -7 -16 -15z"/>
<path d="M7532 158 c-6 -6 -25 -11 -42 -10 -19 0 -30 -4 -30 -13 0 -8 -10 -17
-22 -21 -12 -3 -36 -20 -52 -36 -18 -16 -23 -26 -13 -22 9 3 17 9 17 13 0 3
28 17 63 31 34 13 68 30 76 38 11 11 16 10 27 -5 8 -11 13 -13 14 -5 0 6 8 12
18 12 13 1 11 4 -8 15 -31 18 -33 18 -48 3z m-42 -22 c0 -3 -4 -8 -10 -11 -5
-3 -10 -1 -10 4 0 6 5 11 10 11 6 0 10 -2 10 -4z"/>
<path d="M6049 133 c-13 -16 -12 -17 4 -4 16 13 21 21 13 21 -2 0 -10 -8 -17
-17z"/>
<path d="M6113 143 c-7 -2 -13 -9 -13 -14 0 -14 30 -11 46 6 14 13 13 15 -3
14 -10 0 -24 -3 -30 -6z"/>
<path d="M3060 130 c0 -5 5 -10 11 -10 5 0 7 5 4 10 -3 6 -8 10 -11 10 -2 0
-4 -4 -4 -10z"/>
<path d="M6090 100 c0 -5 -9 -10 -20 -10 -14 0 -18 -5 -13 -16 3 -9 9 -12 12
-7 3 5 14 12 24 16 18 7 24 27 7 27 -5 0 -10 -4 -10 -10z"/>
<path d="M7071 74 c0 -11 3 -14 6 -6 3 7 2 16 -1 19 -3 4 -6 -2 -5 -13z"/>
<path d="M7133 83 c-17 -6 -16 -23 1 -23 8 0 16 7 20 15 6 15 1 17 -21 8z"/>
<path d="M7680 83 c5 -2 8 -9 4 -14 -3 -5 0 -9 6 -9 15 0 7 23 -8 26 -7 1 -8
0 -2 -3z"/>
<path d="M7990 15 c0 -8 2 -15 4 -15 2 0 6 7 10 15 3 8 1 15 -4 15 -6 0 -10
-7 -10 -15z"/>
<path d="M2785 10 c-19 -8 -19 -9 3 -9 12 -1 22 4 22 9 0 6 -1 10 -2 9 -2 0
-12 -4 -23 -9z"/>
</g>
</svg>
