<svg width="21" height="20" viewBox="0 0 21 20" fill="none" xmlns="http://www.w3.org/2000/svg">
<path d="M10.5223 16.4196C12.0223 15.0759 13.1317 14.0603 13.8505 13.3728C14.5692 12.6853 15.3505 11.8728 16.1942 10.9353C17.038 9.99777 17.6161 9.16965 17.9286 8.4509C18.2723 7.73215 18.4442 7.02902 18.4442 6.34152C18.4442 5.34152 18.1005 4.5134 17.413 3.85715C16.7567 3.2009 15.9286 2.87277 14.9286 2.87277C14.1473 2.87277 13.413 3.09152 12.7255 3.52902C12.0692 3.96652 11.6161 4.52902 11.3661 5.21652H9.49109C9.24109 4.52902 8.77234 3.96652 8.08484 3.52902C7.42859 3.09152 6.70984 2.87277 5.92859 2.87277C4.92859 2.87277 4.08484 3.2009 3.39734 3.85715C2.74109 4.5134 2.41296 5.34152 2.41296 6.34152C2.41296 7.02902 2.56921 7.73215 2.88171 8.4509C3.22546 9.16965 3.81921 9.99777 4.66296 10.9353C5.50671 11.8728 6.28796 12.6853 7.00671 13.3728C7.72546 14.0603 8.83484 15.0759 10.3348 16.4196L10.4286 16.5134L10.5223 16.4196ZM14.9286 0.857147C16.4911 0.857147 17.788 1.3884 18.8192 2.4509C19.8817 3.5134 20.413 4.81027 20.413 6.34152C20.413 7.24777 20.2411 8.1384 19.8973 9.0134C19.5536 9.85715 18.913 10.8103 17.9755 11.8728C17.0692 12.9353 16.2411 13.8259 15.4911 14.5446C14.7411 15.2634 13.538 16.3728 11.8817 17.8728L10.4286 19.1853L8.97546 17.9196C6.81921 15.9821 5.25671 14.529 4.28796 13.5603C3.35046 12.5915 2.47546 11.4509 1.66296 10.1384C0.850464 8.8259 0.444214 7.56027 0.444214 6.34152C0.444214 4.81027 0.959839 3.5134 1.99109 2.4509C3.05359 1.3884 4.36609 0.857147 5.92859 0.857147C7.74109 0.857147 9.24109 1.56027 10.4286 2.96652C11.6161 1.56027 13.1161 0.857147 14.9286 0.857147Z" fill="white"/>
</svg>
